<svg xmlns="http://www.w3.org/2000/svg" viewBox="0 0 1448 1086" width="1448" height="1086">
  <g id="variable-width-branches" stroke="none">
    <path id="seg_003_outline" d="M 1126.2 294.3 L 1125.0 294.2 L 1122.5 294.1 L 1120.0 293.9 L 1117.5 293.7 L 1115.0 293.6 L 1112.5 293.4 L 1110.0 293.3 L 1107.5 293.1 L 1105.0 292.9 L 1102.5 292.8 L 1100.0 292.6 L 1097.5 292.4 L 1095.0 292.3 L 1092.5 292.1 L 1090.0 291.9 L 1087.5 291.8 L 1085.0 291.6 L 1082.5 291.4 L 1080.0 291.3 L 1077.5 291.1 L 1075.0 290.9 L 1072.6 290.8 L 1070.1 290.6 L 1067.6 290.5 L 1065.1 290.3 L 1062.6 290.1 L 1060.1 290.0 L 1057.6 289.8 L 1055.1 289.6 L 1052.6 289.5 L 1050.1 289.3 L 1047.6 289.1 L 1045.3 289.0 L 1043.1 288.9 L 1041.1 288.5 L 1039.2 288.0 L 1037.3 287.3 L 1035.2 286.4 L 1033.0 285.5 L 1030.7 284.5 L 1028.4 283.6 L 1026.0 282.6 L 1023.7 281.6 L 1021.4 280.7 L 1019.1 279.7 L 1016.8 278.8 L 1014.5 277.8 L 1012.2 276.8 L 1009.9 275.9 L 1007.6 274.9 L 1005.4 274.0 L 1003.5 273.2 L 1001.8 272.4 L 1000.6 271.5 L 999.3 270.3 L 998.1 268.8 L 996.7 267.1 L 995.1 265.2 L 993.4 263.3 L 991.8 261.4 L 990.2 259.5 L 988.6 257.6 L 987.0 255.6 L 985.4 253.7 L 983.7 251.8 L 982.1 249.9 L 980.5 248.0 L 978.8 246.0 L 976.9 243.9 L 974.7 241.6 L 972.3 239.6 L 969.7 237.9 L 967.3 236.5 L 965.2 235.1 L 963.1 233.8 L 961.0 232.5 L 958.8 231.2 L 956.7 229.9 L 954.6 228.6 L 952.5 227.2 L 950.1 225.8 L 947.3 224.2 L 944.3 222.9 L 940.9 221.9 L 937.7 221.3 L 934.8 221.0 L 932.1 220.8 L 929.6 220.6 L 927.1 220.3 L 924.7 220.1 L 922.2 219.9 L 919.7 219.6 L 916.8 219.4 L 913.5 219.2 L 910.2 219.4 L 906.9 220.2 L 904.0 220.9 L 901.5 221.6 L 899.0 222.3 L 896.6 222.9 L 894.2 223.6 L 891.8 224.3 L 889.4 224.9 L 887.0 225.6 L 884.5 226.3 L 882.1 226.9 L 879.7 227.6 L 877.3 228.2 L 874.8 228.9 L 872.2 229.7 L 869.5 230.5 L 866.7 231.5 L 864.1 232.6 L 861.6 233.8 L 859.2 234.9 L 856.9 236.0 L 854.6 237.1 L 852.4 238.1 L 850.1 239.2 L 847.9 240.3 L 845.6 241.3 L 843.3 242.4 L 841.1 243.5 L 838.8 244.5 L 836.6 245.6 L 834.3 246.7 L 832.0 247.7 L 829.8 248.8 L 827.5 249.9 L 825.3 250.9 L 823.0 252.0 L 820.7 253.1 L 818.3 254.2 L 815.6 255.5 L 812.8 257.2 L 810.1 259.1 L 807.6 261.0 L 805.4 263.0 L 803.4 264.8 L 801.5 266.5 L 799.7 268.1 L 797.8 269.8 L 796.0 271.5 L 794.1 273.2 L 792.3 274.8 L 790.4 276.5 L 788.5 278.2 L 786.7 279.9 L 784.8 281.5 L 783.0 283.2 L 781.1 284.9 L 779.3 286.6 L 777.4 288.2 L 775.6 289.9 L 773.6 291.7 L 771.6 293.5 L 769.4 295.7 L 767.0 298.3 L 765.0 301.0 L 763.3 303.8 L 761.8 306.2 L 760.5 308.4 L 759.2 310.5 L 757.9 312.7 L 756.7 314.8 L 755.4 317.0 L 754.1 319.1 L 752.8 321.2 L 751.5 323.4 L 750.2 325.5 L 748.9 327.7 L 747.7 329.8 L 746.4 332.0 L 745.1 334.1 L 743.8 336.3 L 742.5 338.4 L 741.2 340.5 L 739.9 342.7 L 738.7 344.8 L 737.4 347.0 L 736.1 349.1 L 734.8 351.3 L 733.5 353.4 L 732.2 355.6 L 731.0 357.7 L 729.7 359.9 L 728.4 362.0 L 727.1 364.1 L 725.8 366.3 L 724.5 368.4 L 723.2 370.6 L 722.0 372.7 L 721.1 374.2 L 720.6 374.9 L 720.4 375.3 L 747.6 390.7 L 747.8 390.3 L 748.2 389.6 L 749.0 388.1 L 750.2 385.9 L 751.4 383.7 L 752.5 381.5 L 753.7 379.3 L 754.9 377.1 L 756.1 374.9 L 757.3 372.7 L 758.5 370.5 L 759.7 368.3 L 760.9 366.1 L 762.0 363.9 L 763.2 361.7 L 764.4 359.5 L 765.6 357.3 L 766.8 355.1 L 768.0 352.9 L 769.2 350.7 L 770.3 348.5 L 771.5 346.3 L 772.7 344.1 L 773.9 341.9 L 775.1 339.7 L 776.3 337.5 L 777.5 335.3 L 778.6 333.1 L 779.8 330.9 L 781.0 328.7 L 782.2 326.5 L 783.4 324.3 L 784.6 322.1 L 785.8 319.9 L 786.7 318.0 L 787.5 316.4 L 788.4 315.1 L 789.4 314.0 L 790.7 312.6 L 792.3 311.0 L 793.9 309.4 L 795.7 307.6 L 797.5 305.9 L 799.3 304.1 L 801.1 302.3 L 802.8 300.6 L 804.6 298.8 L 806.4 297.1 L 808.2 295.3 L 809.9 293.6 L 811.7 291.8 L 813.5 290.0 L 815.3 288.3 L 817.1 286.5 L 818.8 284.8 L 820.6 283.0 L 822.2 281.4 L 823.7 279.9 L 825.1 278.7 L 826.3 277.7 L 827.8 276.8 L 829.6 275.8 L 831.6 274.8 L 833.8 273.6 L 836.0 272.4 L 838.2 271.3 L 840.4 270.1 L 842.6 268.9 L 844.9 267.8 L 847.1 266.6 L 849.3 265.4 L 851.5 264.3 L 853.7 263.1 L 855.9 261.9 L 858.1 260.8 L 860.3 259.6 L 862.5 258.4 L 864.7 257.2 L 867.0 256.1 L 869.2 254.9 L 871.2 253.8 L 873.2 252.8 L 875.1 251.9 L 877.0 251.1 L 879.0 250.4 L 881.2 249.6 L 883.5 248.9 L 885.9 248.1 L 888.3 247.3 L 890.6 246.6 L 893.0 245.8 L 895.4 245.0 L 897.8 244.3 L 900.2 243.5 L 902.5 242.7 L 904.9 241.9 L 907.3 241.2 L 909.5 240.4 L 911.4 239.8 L 912.9 239.3 L 914.5 239.1 L 916.2 239.2 L 918.3 239.3 L 920.8 239.4 L 923.3 239.6 L 925.8 239.7 L 928.3 239.8 L 930.8 239.9 L 933.1 240.0 L 935.2 240.1 L 936.9 240.2 L 938.2 240.5 L 939.6 241.1 L 941.2 242.0 L 943.1 243.1 L 945.3 244.3 L 947.5 245.5 L 949.7 246.7 L 951.9 248.0 L 954.0 249.2 L 956.2 250.4 L 958.4 251.6 L 960.3 252.7 L 962.0 253.6 L 963.5 254.6 L 964.8 255.9 L 966.2 257.5 L 967.9 259.3 L 969.6 261.1 L 971.3 262.9 L 973.0 264.7 L 974.7 266.6 L 976.4 268.4 L 978.1 270.2 L 979.8 272.1 L 981.5 273.9 L 983.2 275.7 L 984.9 277.6 L 986.8 279.6 L 988.9 281.8 L 991.3 283.8 L 994.2 285.5 L 996.9 286.9 L 999.6 287.9 L 1002.1 288.9 L 1004.5 289.7 L 1006.8 290.6 L 1009.2 291.4 L 1011.5 292.3 L 1013.9 293.1 L 1016.2 294.0 L 1018.6 294.9 L 1020.9 295.7 L 1023.3 296.6 L 1025.6 297.4 L 1028.0 298.3 L 1030.4 299.2 L 1033.0 300.1 L 1035.7 300.9 L 1038.7 301.6 L 1041.6 301.9 L 1044.4 302.0 L 1047.0 302.1 L 1049.5 302.1 L 1052.0 302.2 L 1054.5 302.2 L 1057.0 302.3 L 1059.5 302.3 L 1062.0 302.4 L 1064.5 302.4 L 1067.0 302.5 L 1069.5 302.5 L 1072.0 302.6 L 1074.5 302.6 L 1077.0 302.7 L 1079.5 302.7 L 1082.0 302.8 L 1084.5 302.8 L 1087.0 302.9 L 1089.5 302.9 L 1092.0 303.0 L 1094.5 303.0 L 1097.0 303.1 L 1099.5 303.1 L 1102.0 303.2 L 1104.5 303.2 L 1107.0 303.3 L 1109.5 303.3 L 1112.0 303.4 L 1114.5 303.5 L 1117.0 303.5 L 1119.5 303.6 L 1122.0 303.6 L 1124.5 303.7 L 1125.8 303.7 Z" fill="#8956b7" />
    <path id="seg_009_outline" d="M 636.7 604.4 L 636.3 605.6 L 635.5 607.9 L 634.8 610.3 L 634.0 612.7 L 633.2 615.1 L 632.4 617.4 L 631.7 619.8 L 630.9 622.2 L 630.1 624.6 L 629.3 626.9 L 628.5 629.3 L 627.8 631.7 L 627.0 634.1 L 626.2 636.4 L 625.4 638.8 L 624.7 641.2 L 623.9 643.6 L 623.1 646.0 L 622.3 648.3 L 621.6 650.7 L 620.8 653.1 L 620.0 655.5 L 619.2 657.8 L 618.4 660.2 L 617.7 662.6 L 616.9 665.0 L 616.1 667.3 L 615.3 669.7 L 614.6 672.1 L 613.8 674.5 L 613.0 676.8 L 612.2 679.2 L 611.8 680.8 L 611.8 681.6 L 611.4 682.3 L 610.7 682.8 L 609.5 683.9 L 607.8 685.8 L 606.1 687.6 L 604.4 689.4 L 602.7 691.3 L 601.0 693.1 L 599.3 694.9 L 597.6 696.8 L 595.9 698.6 L 594.2 700.4 L 592.5 702.3 L 590.8 704.1 L 589.1 705.9 L 587.4 707.8 L 585.7 709.6 L 584.0 711.4 L 582.3 713.3 L 580.6 715.1 L 578.9 716.9 L 577.2 718.8 L 575.5 720.6 L 573.8 722.4 L 572.1 724.2 L 570.4 726.1 L 569.0 727.7 L 567.8 729.0 L 566.6 730.1 L 565.3 731.0 L 563.7 732.0 L 561.7 733.3 L 559.7 734.6 L 557.6 735.9 L 555.5 737.2 L 553.4 738.6 L 551.3 739.9 L 549.2 741.3 L 547.1 742.6 L 544.9 743.9 L 542.8 745.3 L 540.7 746.6 L 538.6 748.0 L 536.5 749.3 L 534.4 750.7 L 532.3 752.0 L 530.2 753.3 L 528.1 754.7 L 526.0 756.0 L 523.9 757.4 L 521.7 758.7 L 519.6 760.1 L 517.5 761.4 L 515.4 762.7 L 513.3 764.1 L 511.2 765.4 L 509.1 766.8 L 507.0 768.1 L 504.9 769.4 L 502.8 770.8 L 500.6 772.1 L 498.5 773.5 L 496.4 774.8 L 494.3 776.2 L 491.9 777.7 L 489.2 779.5 L 486.7 781.5 L 484.5 783.6 L 482.4 785.6 L 480.6 787.4 L 478.9 789.1 L 477.1 790.9 L 475.3 792.7 L 473.5 794.4 L 471.8 796.2 L 470.0 797.9 L 468.2 799.7 L 466.4 801.4 L 464.6 803.2 L 462.9 805.0 L 461.1 806.7 L 459.3 808.5 L 457.5 810.2 L 455.8 812.0 L 454.0 813.7 L 452.2 815.5 L 450.4 817.3 L 448.6 819.0 L 446.5 821.1 L 444.1 823.6 L 442.0 826.6 L 440.1 830.2 L 438.7 833.5 L 437.9 836.6 L 437.2 839.3 L 436.6 841.7 L 436.0 844.2 L 435.4 846.6 L 434.8 849.0 L 434.1 851.4 L 433.5 853.9 L 432.9 856.3 L 432.3 858.7 L 431.7 861.1 L 431.0 864.6 L 430.2 869.2 L 430.8 873.6 L 432.8 878.0 L 434.5 881.3 L 436.0 883.5 L 437.4 885.6 L 438.8 887.7 L 440.1 889.8 L 441.5 891.9 L 442.9 894.0 L 444.3 896.1 L 445.6 898.2 L 447.0 900.3 L 448.6 902.7 L 450.4 905.4 L 452.8 908.0 L 455.7 910.5 L 458.5 912.5 L 461.3 913.9 L 463.8 915.2 L 466.1 916.3 L 468.3 917.4 L 470.6 918.5 L 472.8 919.6 L 475.1 920.7 L 477.3 921.8 L 479.5 923.0 L 481.8 924.1 L 484.0 925.2 L 486.3 926.3 L 488.5 927.4 L 490.7 928.5 L 493.0 929.6 L 495.2 930.7 L 497.5 931.8 L 499.9 933.0 L 502.4 934.2 L 505.3 935.4 L 508.4 936.4 L 511.5 937.1 L 514.5 937.5 L 517.2 937.8 L 519.7 938.1 L 522.2 938.4 L 524.6 938.7 L 527.1 938.9 L 529.6 939.2 L 532.1 939.5 L 534.6 939.8 L 537.1 940.0 L 539.6 940.3 L 542.0 940.6 L 544.5 940.9 L 547.0 941.1 L 549.5 941.4 L 552.0 941.7 L 554.5 942.0 L 557.0 942.2 L 559.4 942.5 L 561.9 942.8 L 564.4 943.1 L 566.9 943.3 L 569.4 943.6 L 571.9 943.9 L 574.3 944.2 L 576.8 944.4 L 579.3 944.7 L 581.8 945.0 L 584.3 945.3 L 586.8 945.5 L 589.3 945.8 L 591.9 946.1 L 594.7 946.4 L 597.6 946.5 L 600.4 946.3 L 603.0 946.2 L 605.5 946.1 L 608.0 946.0 L 610.5 945.9 L 613.0 945.8 L 615.5 945.7 L 618.0 945.6 L 620.5 945.4 L 623.0 945.3 L 625.5 945.2 L 628.0 945.1 L 630.5 945.0 L 633.0 944.9 L 635.5 944.8 L 638.0 944.6 L 640.5 944.5 L 643.0 944.4 L 645.5 944.3 L 648.0 944.2 L 650.5 944.1 L 653.0 944.0 L 655.5 943.8 L 658.0 943.7 L 660.5 943.6 L 663.0 943.5 L 665.5 943.4 L 667.9 943.3 L 670.4 943.2 L 672.9 943.0 L 675.4 942.9 L 677.9 942.8 L 680.4 942.7 L 682.9 942.6 L 685.4 942.5 L 687.9 942.4 L 690.4 942.3 L 692.9 942.1 L 695.4 942.0 L 697.9 941.9 L 700.4 941.8 L 702.9 941.7 L 705.4 941.6 L 707.9 941.5 L 710.4 941.3 L 712.9 941.2 L 715.4 941.1 L 717.9 941.0 L 720.4 940.9 L 722.9 940.8 L 725.4 940.7 L 727.9 940.5 L 730.4 940.4 L 732.9 940.3 L 735.4 940.2 L 737.9 940.1 L 740.4 940.0 L 742.9 939.9 L 745.4 939.8 L 747.9 939.6 L 750.4 939.5 L 752.9 939.4 L 755.4 939.3 L 757.9 939.2 L 760.4 939.1 L 762.9 939.0 L 765.4 938.8 L 767.9 938.7 L 770.4 938.6 L 772.9 938.5 L 775.4 938.4 L 777.5 938.3 L 779.3 938.2 L 780.1 938.2 L 779.9 927.8 L 779.0 927.8 L 777.2 927.9 L 775.1 927.9 L 772.6 927.9 L 770.1 927.9 L 767.6 928.0 L 765.1 928.0 L 762.6 928.0 L 760.1 928.1 L 757.6 928.1 L 755.1 928.1 L 752.6 928.1 L 750.1 928.2 L 747.6 928.2 L 745.1 928.2 L 742.6 928.3 L 740.1 928.3 L 737.6 928.3 L 735.0 928.4 L 732.5 928.4 L 730.0 928.4 L 727.5 928.4 L 725.0 928.5 L 722.5 928.5 L 720.0 928.5 L 717.5 928.6 L 715.0 928.6 L 712.5 928.6 L 710.0 928.6 L 707.5 928.7 L 705.0 928.7 L 702.5 928.7 L 700.0 928.8 L 697.5 928.8 L 695.0 928.8 L 692.5 928.8 L 690.0 928.9 L 687.5 928.9 L 685.0 928.9 L 682.5 929.0 L 680.0 929.0 L 677.5 929.0 L 675.0 929.1 L 672.5 929.1 L 670.0 929.1 L 667.5 929.1 L 665.0 929.2 L 662.5 929.2 L 660.0 929.2 L 657.5 929.3 L 655.0 929.3 L 652.5 929.3 L 650.0 929.3 L 647.5 929.4 L 645.0 929.4 L 642.5 929.4 L 640.0 929.5 L 637.5 929.5 L 635.0 929.5 L 632.5 929.5 L 630.0 929.6 L 627.5 929.6 L 625.0 929.6 L 622.5 929.7 L 620.0 929.7 L 617.5 929.7 L 615.0 929.7 L 612.5 929.8 L 610.0 929.8 L 607.5 929.8 L 605.0 929.9 L 602.5 929.9 L 600.2 929.9 L 598.0 930.0 L 595.8 929.8 L 593.7 929.5 L 591.4 929.2 L 588.9 928.8 L 586.4 928.5 L 584.0 928.1 L 581.5 927.7 L 579.0 927.4 L 576.5 927.0 L 574.1 926.7 L 571.6 926.3 L 569.1 925.9 L 566.6 925.6 L 564.2 925.2 L 561.7 924.9 L 559.2 924.5 L 556.7 924.1 L 554.3 923.8 L 551.8 923.4 L 549.3 923.1 L 546.8 922.7 L 544.4 922.4 L 541.9 922.0 L 539.4 921.6 L 537.0 921.3 L 534.5 920.9 L 532.0 920.6 L 529.5 920.2 L 527.1 919.8 L 524.6 919.5 L 522.1 919.1 L 519.6 918.8 L 517.4 918.4 L 515.4 918.2 L 513.7 917.7 L 512.2 917.2 L 510.5 916.3 L 508.6 915.3 L 506.5 914.2 L 504.3 913.0 L 502.1 911.8 L 499.9 910.6 L 497.7 909.5 L 495.5 908.3 L 493.3 907.1 L 491.1 905.9 L 488.9 904.7 L 486.7 903.6 L 484.5 902.4 L 482.3 901.2 L 480.1 900.0 L 477.9 898.8 L 475.7 897.6 L 473.5 896.5 L 471.6 895.4 L 469.9 894.6 L 468.8 893.8 L 468.0 893.2 L 467.3 892.1 L 466.4 890.5 L 465.3 888.7 L 464.0 886.6 L 462.7 884.4 L 461.4 882.3 L 460.1 880.2 L 458.8 878.0 L 457.5 875.9 L 456.2 873.7 L 455.0 871.7 L 453.7 869.7 L 452.9 868.7 L 452.5 868.8 L 452.6 868.7 L 453.1 868.4 L 453.8 867.1 L 454.5 864.7 L 455.1 862.3 L 455.8 859.9 L 456.5 857.5 L 457.2 855.1 L 457.9 852.7 L 458.6 850.3 L 459.3 847.9 L 460.0 845.5 L 460.6 843.4 L 461.1 841.6 L 461.5 840.4 L 461.9 839.7 L 462.6 838.8 L 463.8 837.9 L 465.4 836.5 L 467.2 834.8 L 469.0 833.1 L 470.9 831.4 L 472.7 829.7 L 474.5 828.0 L 476.4 826.3 L 478.2 824.6 L 480.0 822.9 L 481.9 821.2 L 483.7 819.6 L 485.6 817.9 L 487.4 816.2 L 489.2 814.5 L 491.1 812.8 L 492.9 811.1 L 494.7 809.4 L 496.6 807.7 L 498.4 806.0 L 500.3 804.3 L 501.8 802.8 L 503.2 801.5 L 504.6 800.5 L 506.2 799.6 L 508.0 798.5 L 510.2 797.2 L 512.3 796.0 L 514.5 794.7 L 516.6 793.4 L 518.8 792.2 L 520.9 790.9 L 523.1 789.6 L 525.2 788.4 L 527.4 787.1 L 529.6 785.8 L 531.7 784.6 L 533.9 783.3 L 536.0 782.0 L 538.2 780.7 L 540.3 779.5 L 542.5 778.2 L 544.6 776.9 L 546.8 775.7 L 548.9 774.4 L 551.1 773.1 L 553.2 771.9 L 555.4 770.6 L 557.6 769.3 L 559.7 768.0 L 561.9 766.8 L 564.0 765.5 L 566.2 764.2 L 568.3 763.0 L 570.5 761.7 L 572.6 760.4 L 574.8 759.2 L 577.0 757.8 L 579.3 756.5 L 581.9 754.8 L 584.7 752.9 L 587.3 750.8 L 589.6 748.5 L 591.6 746.5 L 593.4 744.7 L 595.2 742.9 L 596.9 741.2 L 598.7 739.4 L 600.4 737.6 L 602.2 735.8 L 604.0 734.1 L 605.7 732.3 L 607.5 730.5 L 609.3 728.7 L 611.0 727.0 L 612.8 725.2 L 614.5 723.4 L 616.3 721.7 L 618.1 719.9 L 619.8 718.1 L 621.6 716.3 L 623.4 714.6 L 625.1 712.8 L 626.9 711.0 L 628.6 709.2 L 630.4 707.5 L 632.2 705.7 L 634.5 703.3 L 637.2 700.2 L 639.4 696.7 L 641.0 692.8 L 642.3 689.7 L 643.1 687.3 L 644.0 684.9 L 644.9 682.6 L 645.7 680.2 L 646.6 677.9 L 647.4 675.5 L 648.3 673.2 L 649.2 670.8 L 650.0 668.5 L 650.9 666.1 L 651.7 663.8 L 652.6 661.4 L 653.4 659.1 L 654.3 656.7 L 655.2 654.4 L 656.0 652.0 L 656.9 649.7 L 657.7 647.3 L 658.6 645.0 L 659.4 642.6 L 660.3 640.3 L 661.2 637.9 L 662.0 635.6 L 662.9 633.3 L 663.7 630.9 L 664.6 628.6 L 665.4 626.2 L 666.3 623.9 L 667.2 621.5 L 668.0 619.2 L 668.9 616.8 L 669.3 615.6 Z" fill="#046bc8" />
    <path id="seg_008_outline" d="M 1139.3 798.0 L 1138.0 798.2 L 1135.5 798.5 L 1133.1 798.8 L 1130.6 799.1 L 1128.1 799.4 L 1125.6 799.7 L 1123.1 800.0 L 1120.6 800.3 L 1118.2 800.6 L 1115.7 800.9 L 1113.2 801.2 L 1110.7 801.5 L 1108.2 801.8 L 1105.7 802.1 L 1103.3 802.4 L 1100.8 802.7 L 1098.3 803.0 L 1095.8 803.3 L 1093.3 803.6 L 1090.8 803.9 L 1088.4 804.2 L 1085.9 804.5 L 1083.4 804.8 L 1080.9 805.1 L 1078.4 805.4 L 1076.0 805.7 L 1073.5 806.0 L 1071.0 806.3 L 1068.5 806.6 L 1066.0 806.9 L 1063.5 807.2 L 1061.1 807.5 L 1058.6 807.8 L 1056.1 808.1 L 1053.6 808.4 L 1051.1 808.7 L 1048.6 809.0 L 1046.2 809.3 L 1043.7 809.6 L 1041.2 809.9 L 1038.7 810.2 L 1036.2 810.5 L 1033.9 810.8 L 1031.6 811.1 L 1029.4 811.3 L 1027.3 811.3 L 1025.0 811.2 L 1022.7 811.0 L 1020.3 810.9 L 1017.8 810.7 L 1015.3 810.5 L 1012.8 810.4 L 1010.3 810.2 L 1007.8 810.0 L 1005.3 809.9 L 1002.8 809.7 L 1000.3 809.6 L 997.8 809.4 L 995.4 809.2 L 992.9 809.1 L 990.4 808.9 L 987.9 808.7 L 985.4 808.6 L 982.9 808.4 L 980.5 808.2 L 978.2 808.1 L 976.2 807.9 L 974.6 807.7 L 972.9 807.1 L 971.1 806.3 L 969.1 805.4 L 966.8 804.5 L 964.5 803.5 L 962.2 802.5 L 959.9 801.5 L 957.6 800.5 L 955.3 799.5 L 953.0 798.6 L 950.7 797.6 L 948.4 796.6 L 946.1 795.6 L 943.8 794.6 L 941.7 793.7 L 939.8 792.9 L 938.0 791.9 L 936.4 790.9 L 934.5 789.6 L 932.5 788.3 L 930.4 786.9 L 928.4 785.5 L 926.3 784.1 L 924.2 782.7 L 922.1 781.3 L 920.1 779.9 L 918.0 778.5 L 915.9 777.2 L 913.8 775.8 L 911.7 774.4 L 909.9 773.1 L 908.2 772.0 L 906.6 770.7 L 905.2 769.4 L 903.7 767.9 L 902.0 766.2 L 900.3 764.5 L 898.5 762.7 L 896.7 760.9 L 895.0 759.2 L 893.2 757.4 L 891.4 755.6 L 889.7 753.9 L 887.9 752.1 L 886.1 750.3 L 884.4 748.6 L 882.9 747.1 L 881.7 746.0 L 880.8 744.7 L 880.1 743.4 L 879.3 741.8 L 878.3 739.7 L 877.2 737.5 L 876.1 735.3 L 875.0 733.0 L 873.9 730.8 L 872.7 728.6 L 871.6 726.3 L 870.5 724.1 L 869.4 721.8 L 868.3 719.6 L 867.2 717.4 L 866.1 715.1 L 865.0 712.9 L 863.8 710.6 L 862.7 708.4 L 861.7 706.3 L 860.7 704.2 L 859.8 702.4 L 859.1 700.7 L 858.5 698.8 L 858.0 696.8 L 857.4 694.6 L 856.7 692.2 L 856.0 689.8 L 855.4 687.4 L 854.7 685.0 L 854.0 682.6 L 853.3 680.2 L 852.7 677.8 L 852.0 675.4 L 851.3 673.0 L 850.7 670.6 L 850.0 668.1 L 849.3 665.7 L 848.6 663.3 L 848.0 660.9 L 847.3 658.5 L 846.6 656.1 L 846.0 653.7 L 845.3 651.3 L 844.6 648.9 L 843.9 646.5 L 843.3 644.1 L 842.6 641.6 L 841.9 639.2 L 841.3 636.8 L 840.6 634.4 L 839.9 632.0 L 839.2 629.6 L 838.6 627.2 L 837.9 624.8 L 837.2 622.4 L 836.6 620.0 L 835.9 617.6 L 835.2 615.1 L 834.5 612.7 L 833.9 610.3 L 833.2 607.9 L 832.5 605.5 L 832.2 604.3 L 800.0 614.2 L 800.4 615.4 L 801.2 617.8 L 802.0 620.1 L 802.8 622.5 L 803.6 624.9 L 804.4 627.3 L 805.2 629.6 L 806.0 632.0 L 806.8 634.4 L 807.6 636.7 L 808.4 639.1 L 809.2 641.5 L 810.0 643.8 L 810.8 646.2 L 811.6 648.6 L 812.4 651.0 L 813.2 653.3 L 814.0 655.7 L 814.7 658.1 L 815.5 660.4 L 816.3 662.8 L 817.1 665.2 L 817.9 667.5 L 818.7 669.9 L 819.5 672.3 L 820.3 674.7 L 821.1 677.0 L 821.9 679.4 L 822.7 681.8 L 823.5 684.1 L 824.3 686.5 L 825.1 688.9 L 825.9 691.2 L 826.7 693.6 L 827.5 696.0 L 828.3 698.4 L 829.1 700.7 L 829.9 703.1 L 830.8 705.7 L 831.7 708.4 L 832.9 711.3 L 834.2 714.1 L 835.6 716.8 L 836.9 719.1 L 838.2 721.4 L 839.4 723.6 L 840.6 725.8 L 841.9 727.9 L 843.1 730.1 L 844.3 732.3 L 845.5 734.5 L 846.8 736.7 L 848.0 738.8 L 849.2 741.0 L 850.5 743.2 L 851.7 745.4 L 852.9 747.6 L 854.1 749.7 L 855.4 752.0 L 856.7 754.3 L 858.4 757.0 L 860.3 759.9 L 862.5 762.5 L 864.9 764.8 L 867.1 766.8 L 868.9 768.5 L 870.8 770.2 L 872.6 771.8 L 874.5 773.5 L 876.4 775.2 L 878.2 776.8 L 880.1 778.5 L 881.9 780.2 L 883.8 781.9 L 885.7 783.6 L 887.6 785.3 L 889.8 787.2 L 892.1 789.1 L 894.6 790.9 L 897.1 792.4 L 899.4 793.8 L 901.6 795.1 L 903.7 796.4 L 905.9 797.7 L 908.0 799.0 L 910.2 800.2 L 912.3 801.5 L 914.5 802.8 L 916.6 804.1 L 918.8 805.4 L 921.0 806.7 L 923.2 808.0 L 925.6 809.4 L 928.2 810.8 L 930.9 812.1 L 933.6 813.1 L 936.1 814.0 L 938.5 814.9 L 940.8 815.8 L 943.2 816.6 L 945.5 817.5 L 947.9 818.4 L 950.2 819.2 L 952.6 820.1 L 954.9 820.9 L 957.3 821.8 L 959.6 822.7 L 962.0 823.5 L 964.6 824.5 L 967.5 825.5 L 970.6 826.2 L 973.9 826.6 L 976.8 826.8 L 979.5 826.9 L 982.1 826.9 L 984.6 826.9 L 987.1 827.0 L 989.6 827.0 L 992.1 827.0 L 994.6 827.1 L 997.1 827.1 L 999.6 827.1 L 1002.1 827.2 L 1004.6 827.2 L 1007.1 827.2 L 1009.6 827.3 L 1012.1 827.3 L 1014.6 827.3 L 1017.1 827.4 L 1019.6 827.4 L 1022.2 827.4 L 1024.9 827.5 L 1027.7 827.4 L 1030.5 827.2 L 1033.3 826.9 L 1036.0 826.4 L 1038.5 826.0 L 1041.0 825.5 L 1043.5 825.1 L 1045.9 824.7 L 1048.4 824.2 L 1050.8 823.8 L 1053.3 823.4 L 1055.8 822.9 L 1058.2 822.5 L 1060.7 822.1 L 1063.2 821.6 L 1065.6 821.2 L 1068.1 820.8 L 1070.5 820.3 L 1073.0 819.9 L 1075.5 819.5 L 1077.9 819.0 L 1080.4 818.6 L 1082.9 818.2 L 1085.3 817.7 L 1087.8 817.3 L 1090.3 816.9 L 1092.7 816.4 L 1095.2 816.0 L 1097.6 815.6 L 1100.1 815.1 L 1102.6 814.7 L 1105.0 814.3 L 1107.5 813.8 L 1110.0 813.4 L 1112.4 813.0 L 1114.9 812.5 L 1117.3 812.1 L 1119.8 811.7 L 1122.3 811.2 L 1124.7 810.8 L 1127.2 810.4 L 1129.7 809.9 L 1132.1 809.5 L 1134.6 809.1 L 1137.0 808.6 L 1139.5 808.2 L 1140.7 808.0 Z" fill="#1dbed1" />
    <path id="seg_001_outline" d="M 1251.7 603.1 L 1250.5 602.9 L 1248.0 602.5 L 1245.6 602.0 L 1243.1 601.6 L 1240.6 601.2 L 1238.2 600.8 L 1235.7 600.3 L 1233.2 599.9 L 1230.8 599.5 L 1228.3 599.0 L 1225.8 598.6 L 1223.4 598.2 L 1220.9 597.8 L 1218.5 597.3 L 1216.0 596.9 L 1213.5 596.5 L 1211.1 596.1 L 1208.6 595.6 L 1206.1 595.2 L 1203.7 594.8 L 1201.2 594.4 L 1198.7 593.9 L 1196.5 593.5 L 1194.5 593.2 L 1192.7 592.7 L 1191.3 591.9 L 1189.8 590.9 L 1188.1 589.6 L 1186.2 588.1 L 1184.3 586.6 L 1182.3 585.0 L 1180.3 583.5 L 1178.4 582.0 L 1176.4 580.4 L 1174.4 578.9 L 1172.4 577.3 L 1170.5 575.8 L 1168.5 574.3 L 1166.5 572.7 L 1164.6 571.2 L 1162.6 569.6 L 1160.6 568.1 L 1158.9 566.8 L 1157.4 565.6 L 1156.1 564.3 L 1155.1 562.7 L 1153.9 560.8 L 1152.6 558.8 L 1151.2 556.7 L 1149.8 554.6 L 1148.4 552.5 L 1147.0 550.4 L 1145.6 548.4 L 1144.2 546.3 L 1142.8 544.2 L 1141.5 542.1 L 1140.1 540.0 L 1138.7 538.0 L 1137.3 535.9 L 1135.9 533.8 L 1134.5 531.7 L 1133.1 529.6 L 1131.7 527.6 L 1130.4 525.5 L 1129.0 523.4 L 1127.6 521.3 L 1125.9 518.9 L 1123.9 516.1 L 1121.1 513.6 L 1117.4 511.3 L 1113.9 509.9 L 1110.6 509.2 L 1107.6 508.7 L 1105.2 508.3 L 1102.7 507.9 L 1100.2 507.5 L 1097.8 507.1 L 1095.3 506.7 L 1092.8 506.3 L 1090.4 505.9 L 1087.9 505.5 L 1085.4 505.1 L 1083.0 504.7 L 1080.5 504.2 L 1078.0 503.8 L 1075.6 503.4 L 1073.1 503.0 L 1070.6 502.6 L 1068.2 502.2 L 1065.7 501.8 L 1063.2 501.4 L 1060.8 501.0 L 1058.3 500.6 L 1055.8 500.2 L 1053.3 499.8 L 1050.9 499.4 L 1048.4 499.0 L 1045.9 498.6 L 1043.3 498.1 L 1040.4 497.7 L 1037.2 497.5 L 1033.6 497.5 L 1030.3 497.8 L 1027.3 498.4 L 1024.5 498.9 L 1022.1 499.4 L 1019.6 500.0 L 1017.2 500.5 L 1014.7 501.0 L 1012.3 501.5 L 1009.8 502.0 L 1007.4 502.5 L 1004.9 503.0 L 1002.5 503.5 L 1000.0 504.0 L 997.6 504.5 L 995.1 505.0 L 992.7 505.5 L 990.2 506.0 L 987.8 506.6 L 985.3 507.1 L 982.9 507.6 L 980.4 508.1 L 978.0 508.6 L 975.5 509.1 L 973.1 509.6 L 970.6 510.1 L 968.2 510.6 L 965.7 511.1 L 963.3 511.6 L 960.9 512.1 L 958.4 512.7 L 956.0 513.2 L 953.5 513.7 L 951.1 514.2 L 948.6 514.7 L 946.2 515.2 L 943.7 515.7 L 941.3 516.2 L 938.8 516.7 L 936.4 517.2 L 933.9 517.7 L 931.5 518.2 L 929.0 518.7 L 926.6 519.3 L 924.1 519.8 L 921.7 520.3 L 919.2 520.8 L 916.8 521.3 L 914.3 521.8 L 911.9 522.3 L 909.4 522.8 L 907.0 523.3 L 904.5 523.8 L 902.1 524.3 L 899.6 524.8 L 897.2 525.4 L 894.7 525.9 L 892.3 526.4 L 889.8 526.9 L 887.4 527.4 L 884.9 527.9 L 882.5 528.4 L 880.0 528.9 L 877.6 529.4 L 875.1 529.9 L 872.7 530.4 L 870.2 530.9 L 867.8 531.4 L 865.3 532.0 L 862.9 532.5 L 860.5 533.0 L 858.0 533.5 L 855.6 534.0 L 853.1 534.5 L 850.7 535.0 L 848.6 535.4 L 847.0 535.8 L 846.2 535.9 L 853.8 568.1 L 854.6 567.9 L 856.2 567.5 L 858.2 566.9 L 860.6 566.3 L 863.0 565.7 L 865.4 565.0 L 867.8 564.4 L 870.2 563.8 L 872.7 563.1 L 875.1 562.5 L 877.5 561.8 L 879.9 561.2 L 882.3 560.6 L 884.8 559.9 L 887.2 559.3 L 889.6 558.7 L 892.0 558.0 L 894.4 557.4 L 896.9 556.8 L 899.3 556.1 L 901.7 555.5 L 904.1 554.9 L 906.5 554.2 L 909.0 553.6 L 911.4 553.0 L 913.8 552.3 L 916.2 551.7 L 918.6 551.1 L 921.0 550.4 L 923.5 549.8 L 925.9 549.1 L 928.3 548.5 L 930.7 547.9 L 933.1 547.2 L 935.6 546.6 L 938.0 546.0 L 940.4 545.3 L 942.8 544.7 L 945.2 544.1 L 947.7 543.4 L 950.1 542.8 L 952.5 542.2 L 954.9 541.5 L 957.3 540.9 L 959.7 540.3 L 962.2 539.6 L 964.6 539.0 L 967.0 538.4 L 969.4 537.7 L 971.8 537.1 L 974.3 536.4 L 976.7 535.8 L 979.1 535.2 L 981.5 534.5 L 983.9 533.9 L 986.4 533.3 L 988.8 532.6 L 991.2 532.0 L 993.6 531.4 L 996.0 530.7 L 998.4 530.1 L 1000.9 529.5 L 1003.3 528.8 L 1005.7 528.2 L 1008.1 527.6 L 1010.5 526.9 L 1013.0 526.3 L 1015.4 525.6 L 1017.8 525.0 L 1020.2 524.4 L 1022.6 523.7 L 1025.1 523.1 L 1027.5 522.5 L 1029.9 521.8 L 1032.0 521.3 L 1033.8 520.7 L 1035.4 520.4 L 1036.8 520.4 L 1038.5 520.5 L 1040.6 520.7 L 1042.9 521.0 L 1045.3 521.2 L 1047.8 521.5 L 1050.3 521.8 L 1052.8 522.1 L 1055.3 522.3 L 1057.8 522.6 L 1060.3 522.9 L 1062.7 523.2 L 1065.2 523.5 L 1067.7 523.7 L 1070.2 524.0 L 1072.7 524.3 L 1075.2 524.6 L 1077.7 524.8 L 1080.1 525.1 L 1082.6 525.4 L 1085.1 525.7 L 1087.6 525.9 L 1090.1 526.2 L 1092.6 526.5 L 1095.1 526.8 L 1097.5 527.1 L 1100.0 527.3 L 1102.5 527.6 L 1105.0 527.9 L 1107.0 528.1 L 1108.6 528.1 L 1109.6 528.2 L 1109.8 528.3 L 1110.4 529.0 L 1111.3 530.3 L 1112.5 532.0 L 1114.0 534.0 L 1115.5 536.0 L 1117.0 538.0 L 1118.5 540.0 L 1120.0 542.0 L 1121.5 544.0 L 1123.0 546.0 L 1124.5 548.0 L 1126.0 550.0 L 1127.4 552.0 L 1128.9 554.0 L 1130.4 556.0 L 1131.9 558.0 L 1133.4 560.0 L 1134.9 562.0 L 1136.4 564.0 L 1137.9 566.0 L 1139.4 568.0 L 1140.9 570.1 L 1142.6 572.3 L 1144.5 574.8 L 1146.7 576.9 L 1149.2 578.8 L 1151.5 580.4 L 1153.6 581.8 L 1155.6 583.3 L 1157.7 584.7 L 1159.7 586.1 L 1161.8 587.6 L 1163.8 589.0 L 1165.8 590.5 L 1167.9 591.9 L 1169.9 593.3 L 1172.0 594.8 L 1174.0 596.2 L 1176.1 597.6 L 1178.1 599.1 L 1180.3 600.6 L 1182.7 602.2 L 1185.3 603.7 L 1188.3 604.9 L 1191.3 605.8 L 1194.2 606.2 L 1196.9 606.5 L 1199.4 606.8 L 1201.9 607.1 L 1204.3 607.4 L 1206.8 607.7 L 1209.3 608.0 L 1211.8 608.3 L 1214.3 608.6 L 1216.8 608.9 L 1219.2 609.2 L 1221.7 609.5 L 1224.2 609.8 L 1226.7 610.1 L 1229.2 610.4 L 1231.7 610.7 L 1234.1 611.0 L 1236.6 611.3 L 1239.1 611.6 L 1241.6 611.9 L 1244.1 612.2 L 1246.6 612.5 L 1249.0 612.8 L 1250.3 612.9 Z" fill="#ed3468" />
    <path id="seg_007_outline" d="M 171.2 311.4 L 172.4 311.1 L 174.8 310.5 L 177.2 309.8 L 179.7 309.2 L 182.1 308.6 L 184.5 308.0 L 187.0 307.4 L 189.4 306.8 L 191.8 306.2 L 194.2 305.6 L 196.7 305.0 L 199.1 304.4 L 201.5 303.8 L 203.9 303.2 L 206.4 302.6 L 208.8 302.0 L 211.2 301.4 L 213.6 300.8 L 216.1 300.2 L 218.5 299.5 L 220.9 298.9 L 223.3 298.3 L 225.8 297.7 L 228.2 297.1 L 230.6 296.5 L 233.0 295.9 L 235.5 295.3 L 237.9 294.7 L 240.3 294.1 L 242.7 293.5 L 245.2 292.9 L 247.6 292.3 L 250.0 291.7 L 252.5 291.1 L 254.9 290.5 L 257.3 289.9 L 259.7 289.2 L 262.2 288.6 L 264.6 288.0 L 267.0 287.4 L 269.4 286.8 L 271.9 286.2 L 274.3 285.6 L 276.7 285.0 L 279.1 284.4 L 281.6 283.8 L 284.0 283.2 L 286.4 282.6 L 288.8 282.0 L 291.3 281.4 L 293.7 280.8 L 296.1 280.2 L 298.5 279.6 L 301.0 278.9 L 303.4 278.3 L 305.8 277.7 L 308.2 277.1 L 310.7 276.5 L 313.1 275.9 L 315.5 275.3 L 318.0 274.7 L 320.4 274.1 L 322.8 273.5 L 325.2 272.9 L 327.7 272.3 L 330.1 271.7 L 332.5 271.1 L 334.9 270.5 L 337.4 269.9 L 339.8 269.3 L 342.2 268.6 L 344.6 268.0 L 347.1 267.4 L 349.5 266.8 L 351.9 266.2 L 354.3 265.6 L 356.8 265.0 L 359.2 264.4 L 361.6 263.8 L 364.0 263.2 L 366.5 262.6 L 368.9 262.0 L 371.3 261.4 L 373.8 260.8 L 376.2 260.2 L 378.6 259.6 L 381.0 259.0 L 383.3 258.4 L 385.4 257.9 L 387.4 257.5 L 389.5 257.3 L 391.7 257.2 L 394.0 257.1 L 396.5 257.0 L 399.0 256.9 L 401.5 256.8 L 404.0 256.8 L 406.5 256.7 L 409.0 256.6 L 411.5 256.5 L 414.0 256.4 L 416.5 256.3 L 419.0 256.2 L 421.5 256.1 L 424.0 256.0 L 426.5 255.9 L 429.0 255.8 L 431.5 255.7 L 434.0 255.6 L 436.5 255.5 L 439.0 255.4 L 441.5 255.3 L 444.0 255.2 L 446.5 255.1 L 449.0 255.0 L 451.5 254.9 L 454.0 254.8 L 456.5 254.7 L 458.9 254.6 L 461.4 254.5 L 463.9 254.4 L 466.4 254.3 L 468.9 254.2 L 471.4 254.1 L 473.9 254.1 L 476.4 254.0 L 478.6 253.9 L 480.3 253.8 L 481.7 253.8 L 482.6 254.1 L 483.8 254.7 L 485.3 255.6 L 487.2 256.6 L 489.4 257.8 L 491.6 259.0 L 493.8 260.2 L 496.0 261.4 L 498.2 262.6 L 500.4 263.8 L 502.6 265.0 L 504.8 266.2 L 507.0 267.4 L 509.2 268.6 L 511.4 269.8 L 513.6 271.0 L 515.8 272.2 L 518.0 273.4 L 520.2 274.5 L 522.4 275.7 L 524.6 276.9 L 526.5 278.0 L 528.2 278.9 L 529.7 279.9 L 530.8 280.8 L 532.1 282.1 L 533.5 283.6 L 535.0 285.3 L 536.7 287.1 L 538.5 289.0 L 540.2 290.8 L 541.9 292.6 L 543.6 294.4 L 545.3 296.3 L 547.0 298.1 L 548.7 299.9 L 550.4 301.8 L 552.1 303.6 L 553.8 305.4 L 555.5 307.2 L 557.2 309.1 L 558.9 310.9 L 560.6 312.7 L 562.3 314.6 L 564.0 316.4 L 565.4 317.9 L 566.5 319.0 L 567.4 320.2 L 568.0 321.6 L 568.8 323.3 L 569.8 325.5 L 570.9 327.8 L 571.9 330.0 L 573.0 332.3 L 574.1 334.6 L 575.2 336.8 L 576.2 339.1 L 577.3 341.3 L 578.4 343.6 L 579.5 345.8 L 580.5 348.1 L 581.6 350.4 L 582.7 352.6 L 583.8 354.9 L 584.8 357.1 L 585.9 359.4 L 587.0 361.6 L 588.1 363.9 L 589.1 366.2 L 590.2 368.4 L 591.3 370.7 L 592.4 372.9 L 593.4 375.2 L 594.5 377.5 L 595.6 379.7 L 596.6 382.0 L 597.7 384.2 L 598.8 386.5 L 599.9 388.7 L 600.9 391.0 L 602.0 393.3 L 603.1 395.5 L 604.2 397.8 L 605.2 399.9 L 606.1 401.8 L 606.5 402.7 L 633.5 389.3 L 633.0 388.3 L 632.0 386.4 L 630.9 384.4 L 629.8 382.2 L 628.6 380.0 L 627.4 377.8 L 626.3 375.5 L 625.1 373.3 L 624.0 371.1 L 622.8 368.9 L 621.6 366.7 L 620.5 364.5 L 619.3 362.3 L 618.1 360.0 L 617.0 357.8 L 615.8 355.6 L 614.7 353.4 L 613.5 351.2 L 612.3 349.0 L 611.2 346.8 L 610.0 344.5 L 608.8 342.3 L 607.7 340.1 L 606.5 337.9 L 605.4 335.7 L 604.2 333.5 L 603.0 331.3 L 601.9 329.0 L 600.7 326.8 L 599.5 324.6 L 598.4 322.4 L 597.2 320.2 L 596.1 318.0 L 594.9 315.8 L 593.7 313.5 L 592.5 311.3 L 591.1 308.6 L 589.3 305.5 L 587.3 302.8 L 584.9 300.3 L 582.8 298.2 L 581.0 296.4 L 579.3 294.7 L 577.5 292.9 L 575.7 291.1 L 573.9 289.4 L 572.2 287.6 L 570.4 285.9 L 568.6 284.1 L 566.8 282.3 L 565.1 280.6 L 563.3 278.8 L 561.5 277.1 L 559.7 275.3 L 557.9 273.5 L 556.2 271.8 L 554.4 270.0 L 552.6 268.3 L 550.7 266.3 L 548.6 264.3 L 546.2 262.2 L 543.4 260.2 L 540.7 258.4 L 538.0 257.1 L 535.5 255.8 L 533.3 254.7 L 531.0 253.6 L 528.8 252.5 L 526.5 251.4 L 524.3 250.3 L 522.1 249.2 L 519.8 248.1 L 517.6 247.0 L 515.3 245.8 L 513.1 244.7 L 510.9 243.6 L 508.6 242.5 L 506.4 241.4 L 504.1 240.3 L 501.9 239.2 L 499.6 238.1 L 497.4 237.0 L 494.8 235.7 L 492.0 234.3 L 488.6 233.3 L 484.8 232.5 L 481.3 232.2 L 478.0 232.4 L 475.2 232.6 L 472.7 232.8 L 470.2 232.9 L 467.7 233.1 L 465.2 233.3 L 462.7 233.5 L 460.2 233.7 L 457.7 233.9 L 455.2 234.1 L 452.8 234.3 L 450.3 234.5 L 447.8 234.7 L 445.3 234.9 L 442.8 235.1 L 440.3 235.3 L 437.8 235.5 L 435.3 235.7 L 432.8 235.9 L 430.3 236.1 L 427.8 236.3 L 425.3 236.5 L 422.8 236.7 L 420.3 236.8 L 417.9 237.0 L 415.4 237.2 L 412.9 237.4 L 410.4 237.6 L 407.9 237.8 L 405.4 238.0 L 402.9 238.2 L 400.4 238.4 L 397.9 238.6 L 395.4 238.8 L 392.9 239.0 L 390.3 239.2 L 387.4 239.4 L 384.6 239.9 L 381.7 240.5 L 379.0 241.2 L 376.5 242.0 L 374.0 242.7 L 371.6 243.4 L 369.2 244.1 L 366.8 244.8 L 364.4 245.5 L 362.0 246.2 L 359.6 246.9 L 357.2 247.6 L 354.8 248.3 L 352.4 249.0 L 350.0 249.7 L 347.6 250.4 L 345.2 251.1 L 342.8 251.8 L 340.4 252.5 L 338.0 253.2 L 335.6 253.9 L 333.2 254.6 L 330.8 255.3 L 328.4 256.0 L 326.0 256.7 L 323.6 257.4 L 321.2 258.1 L 318.8 258.8 L 316.4 259.5 L 314.0 260.2 L 311.6 260.9 L 309.2 261.6 L 306.8 262.3 L 304.4 263.0 L 302.0 263.7 L 299.6 264.4 L 297.2 265.1 L 294.8 265.8 L 292.4 266.5 L 290.0 267.2 L 287.6 267.9 L 285.2 268.6 L 282.8 269.3 L 280.4 270.0 L 278.0 270.7 L 275.6 271.4 L 273.2 272.1 L 270.8 272.8 L 268.4 273.5 L 266.0 274.2 L 263.6 274.9 L 261.2 275.6 L 258.8 276.3 L 256.4 277.0 L 254.0 277.7 L 251.6 278.4 L 249.2 279.1 L 246.8 279.8 L 244.4 280.5 L 242.0 281.3 L 239.6 282.0 L 237.2 282.7 L 234.8 283.4 L 232.4 284.1 L 230.0 284.8 L 227.6 285.5 L 225.2 286.2 L 222.8 286.9 L 220.4 287.6 L 218.0 288.3 L 215.6 289.0 L 213.2 289.7 L 210.8 290.4 L 208.4 291.1 L 206.0 291.8 L 203.6 292.5 L 201.2 293.2 L 198.8 293.9 L 196.4 294.6 L 194.0 295.3 L 191.6 296.0 L 189.2 296.7 L 186.8 297.4 L 184.4 298.1 L 182.0 298.8 L 179.6 299.5 L 177.2 300.2 L 174.8 300.9 L 172.4 301.6 L 170.0 302.3 L 168.8 302.6 Z" fill="#fc8b05" />
    <path id="seg_005_outline" d="M 192.6 726.9 L 193.8 726.5 L 196.2 725.7 L 198.6 724.9 L 200.9 724.2 L 203.3 723.4 L 205.7 722.6 L 208.1 721.8 L 210.4 721.0 L 212.8 720.2 L 215.2 719.5 L 217.6 718.7 L 219.9 717.9 L 222.3 717.1 L 224.7 716.3 L 227.1 715.5 L 229.4 714.8 L 231.8 714.0 L 234.2 713.2 L 236.6 712.4 L 238.9 711.7 L 241.3 710.9 L 243.7 710.2 L 246.1 709.4 L 248.5 708.7 L 250.9 707.9 L 253.3 707.2 L 255.6 706.4 L 258.0 705.7 L 260.4 704.9 L 262.9 704.2 L 265.3 703.3 L 267.9 702.2 L 270.1 700.8 L 272.2 699.0 L 274.1 697.3 L 276.0 695.6 L 277.9 694.0 L 279.8 692.3 L 281.6 690.7 L 283.5 689.0 L 285.4 687.4 L 287.3 685.7 L 289.1 684.1 L 291.0 682.4 L 292.9 680.8 L 294.8 679.1 L 296.6 677.5 L 298.5 675.8 L 300.4 674.1 L 302.3 672.5 L 304.2 670.7 L 306.3 668.9 L 308.0 666.7 L 309.4 664.3 L 310.6 661.9 L 311.8 659.7 L 312.9 657.5 L 314.1 655.2 L 315.2 653.0 L 316.3 650.8 L 317.5 648.6 L 318.6 646.3 L 319.8 644.1 L 320.9 641.9 L 322.0 639.7 L 323.2 637.4 L 324.3 635.2 L 325.5 633.0 L 326.6 630.8 L 327.8 628.5 L 328.9 626.3 L 330.0 624.1 L 331.2 621.9 L 332.3 619.6 L 333.5 617.4 L 334.6 615.2 L 335.8 613.0 L 336.9 610.7 L 338.0 608.5 L 339.2 606.3 L 340.3 604.1 L 341.5 601.8 L 342.6 599.6 L 343.7 597.4 L 344.9 595.2 L 346.0 593.0 L 347.0 591.1 L 347.7 589.7 L 348.1 589.0 L 339.9 585.0 L 339.6 585.7 L 338.9 587.1 L 338.0 589.0 L 337.0 591.2 L 335.9 593.5 L 334.8 595.8 L 333.7 598.0 L 332.6 600.3 L 331.6 602.5 L 330.5 604.8 L 329.4 607.0 L 328.3 609.3 L 327.3 611.6 L 326.2 613.8 L 325.1 616.1 L 324.0 618.3 L 323.0 620.6 L 321.9 622.8 L 320.8 625.1 L 319.7 627.3 L 318.6 629.6 L 317.6 631.9 L 316.5 634.1 L 315.4 636.4 L 314.3 638.6 L 313.3 640.9 L 312.2 643.1 L 311.1 645.4 L 310.0 647.7 L 309.0 649.9 L 307.9 652.2 L 306.8 654.4 L 305.7 656.7 L 304.7 658.9 L 303.6 661.0 L 302.7 663.0 L 301.4 664.7 L 299.8 666.2 L 298.0 667.8 L 296.2 669.5 L 294.4 671.2 L 292.5 672.9 L 290.7 674.6 L 288.9 676.4 L 287.1 678.1 L 285.2 679.8 L 283.4 681.5 L 281.6 683.2 L 279.8 684.9 L 277.9 686.6 L 276.1 688.3 L 274.3 690.0 L 272.5 691.7 L 270.6 693.4 L 268.9 695.1 L 267.2 696.7 L 265.4 697.9 L 263.4 698.8 L 261.2 699.6 L 258.9 700.4 L 256.5 701.2 L 254.2 702.0 L 251.8 702.9 L 249.5 703.7 L 247.1 704.5 L 244.7 705.3 L 242.4 706.1 L 240.0 706.9 L 237.6 707.8 L 235.3 708.6 L 232.9 709.4 L 230.5 710.2 L 228.2 711.0 L 225.8 711.7 L 223.4 712.5 L 221.0 713.3 L 218.7 714.1 L 216.3 714.9 L 213.9 715.7 L 211.6 716.4 L 209.2 717.2 L 206.8 718.0 L 204.4 718.8 L 202.1 719.6 L 199.7 720.4 L 197.3 721.1 L 194.9 721.9 L 192.6 722.7 L 191.4 723.1 Z" fill="#48ad2e" />
    <path id="seg_002_outline" d="M 304.4 167.8 L 305.5 168.5 L 307.6 169.8 L 309.7 171.2 L 311.8 172.6 L 313.9 173.9 L 316.0 175.3 L 318.1 176.6 L 320.2 178.0 L 322.3 179.4 L 324.4 180.7 L 326.5 182.1 L 328.6 183.4 L 330.7 184.8 L 332.8 186.2 L 334.9 187.5 L 337.0 188.9 L 339.1 190.2 L 341.2 191.6 L 343.3 193.0 L 345.4 194.3 L 347.5 195.7 L 349.6 197.0 L 351.8 198.4 L 353.9 199.8 L 356.0 201.1 L 358.1 202.5 L 360.2 203.8 L 362.3 205.2 L 364.4 206.6 L 366.5 207.9 L 368.6 209.3 L 370.7 210.6 L 372.8 212.0 L 374.9 213.4 L 377.0 214.7 L 379.1 216.1 L 381.2 217.5 L 383.3 218.8 L 385.4 220.2 L 387.5 221.5 L 389.6 222.9 L 391.7 224.3 L 393.8 225.6 L 395.9 227.0 L 398.0 228.3 L 400.1 229.7 L 402.2 231.1 L 404.3 232.4 L 405.4 233.1 L 415.8 214.5 L 414.7 213.9 L 412.5 212.8 L 410.2 211.8 L 408.0 210.7 L 405.7 209.6 L 403.4 208.5 L 401.2 207.4 L 398.9 206.3 L 396.7 205.2 L 394.4 204.1 L 392.2 203.0 L 389.9 202.0 L 387.7 200.9 L 385.4 199.8 L 383.1 198.7 L 380.9 197.6 L 378.6 196.5 L 376.4 195.4 L 374.1 194.3 L 371.9 193.2 L 369.6 192.2 L 367.3 191.1 L 365.1 190.0 L 362.8 188.9 L 360.6 187.8 L 358.3 186.7 L 356.1 185.6 L 353.8 184.5 L 351.6 183.4 L 349.3 182.4 L 347.0 181.3 L 344.8 180.2 L 342.5 179.1 L 340.3 178.0 L 338.0 176.9 L 335.8 175.8 L 333.5 174.7 L 331.3 173.6 L 329.0 172.6 L 326.7 171.5 L 324.5 170.4 L 322.2 169.3 L 320.0 168.2 L 317.7 167.1 L 315.5 166.0 L 313.2 164.9 L 311.0 163.8 L 308.7 162.8 L 307.6 162.2 Z" fill="#fd910c" />
    <path id="seg_004_outline" d="M 169.8 570.0 L 171.1 570.1 L 173.6 570.3 L 176.1 570.5 L 178.5 570.7 L 181.0 570.9 L 183.5 571.2 L 186.0 571.4 L 188.5 571.6 L 191.0 571.8 L 193.5 572.0 L 196.0 572.2 L 198.5 572.4 L 201.0 572.6 L 203.5 572.9 L 205.9 573.1 L 208.4 573.3 L 210.9 573.6 L 213.4 573.9 L 215.9 574.1 L 218.4 574.4 L 220.9 574.6 L 223.4 574.9 L 225.8 575.1 L 228.3 575.4 L 230.8 575.6 L 233.3 575.9 L 235.8 576.2 L 238.3 576.4 L 240.8 576.7 L 243.3 576.9 L 245.7 577.2 L 248.2 577.4 L 250.7 577.7 L 253.2 578.0 L 255.7 578.2 L 258.2 578.5 L 260.7 578.7 L 263.2 579.0 L 265.6 579.2 L 268.1 579.5 L 270.6 579.8 L 273.1 580.0 L 275.6 580.3 L 278.1 580.5 L 280.6 580.8 L 283.1 581.0 L 285.5 581.3 L 288.0 581.6 L 290.5 581.8 L 293.0 582.1 L 295.5 582.3 L 298.0 582.6 L 300.5 582.8 L 302.9 583.1 L 305.4 583.4 L 307.9 583.6 L 310.4 583.9 L 312.9 584.1 L 315.4 584.4 L 317.9 584.6 L 320.4 584.9 L 322.8 585.2 L 325.3 585.4 L 327.8 585.7 L 330.3 585.9 L 332.8 586.2 L 335.3 586.4 L 337.8 586.7 L 340.3 587.0 L 342.7 587.2 L 344.4 587.4 L 345.2 587.5 L 345.6 587.5 L 346.4 578.5 L 346.0 578.5 L 345.2 578.4 L 343.5 578.3 L 341.0 578.1 L 338.5 578.0 L 336.0 577.8 L 333.5 577.6 L 331.0 577.5 L 328.5 577.3 L 326.0 577.1 L 323.5 577.0 L 321.0 576.8 L 318.6 576.6 L 316.1 576.5 L 313.6 576.3 L 311.1 576.1 L 308.6 575.9 L 306.1 575.8 L 303.6 575.6 L 301.1 575.4 L 298.6 575.3 L 296.1 575.1 L 293.6 574.9 L 291.1 574.8 L 288.6 574.6 L 286.1 574.4 L 283.6 574.3 L 281.1 574.1 L 278.6 573.9 L 276.1 573.8 L 273.6 573.6 L 271.2 573.4 L 268.7 573.3 L 266.2 573.1 L 263.7 572.9 L 261.2 572.8 L 258.7 572.6 L 256.2 572.4 L 253.7 572.3 L 251.2 572.1 L 248.7 571.9 L 246.2 571.8 L 243.7 571.6 L 241.2 571.4 L 238.7 571.3 L 236.2 571.1 L 233.7 570.9 L 231.2 570.8 L 228.7 570.6 L 226.2 570.4 L 223.8 570.3 L 221.3 570.1 L 218.8 569.9 L 216.3 569.7 L 213.8 569.6 L 211.3 569.4 L 208.8 569.2 L 206.3 569.1 L 203.8 568.9 L 201.3 568.7 L 198.8 568.4 L 196.3 568.2 L 193.8 568.0 L 191.3 567.8 L 188.9 567.6 L 186.4 567.4 L 183.9 567.2 L 181.4 567.0 L 178.9 566.8 L 176.4 566.5 L 173.9 566.3 L 171.4 566.1 L 170.2 566.0 Z" fill="#4aad2e" />
    <path id="seg_006_outline" d="M 1019.9 141.6 L 1018.9 142.3 L 1016.9 143.8 L 1014.9 145.3 L 1012.9 146.9 L 1010.9 148.4 L 1008.9 149.9 L 1006.9 151.4 L 1004.9 152.9 L 1002.9 154.4 L 1000.9 155.9 L 998.9 157.4 L 996.9 159.0 L 994.9 160.5 L 993.0 162.0 L 991.0 163.5 L 989.0 165.0 L 987.0 166.5 L 985.0 168.0 L 983.0 169.5 L 981.0 171.0 L 979.0 172.6 L 977.0 174.1 L 975.0 175.6 L 973.0 177.1 L 971.0 178.6 L 969.0 180.1 L 967.0 181.6 L 965.0 183.1 L 963.0 184.7 L 961.0 186.2 L 959.0 187.7 L 957.0 189.2 L 955.0 190.7 L 953.0 192.2 L 951.0 193.7 L 949.0 195.2 L 947.0 196.7 L 945.0 198.3 L 943.0 199.8 L 941.0 201.3 L 939.0 202.8 L 937.0 204.3 L 935.0 205.8 L 933.0 207.3 L 931.0 208.8 L 929.0 210.4 L 927.0 211.9 L 925.1 213.4 L 923.8 214.3 L 923.3 214.7 L 923.0 214.9 L 937.0 231.1 L 937.2 230.9 L 937.6 230.4 L 938.8 229.3 L 940.6 227.6 L 942.4 225.9 L 944.2 224.1 L 945.9 222.4 L 947.7 220.6 L 949.5 218.9 L 951.3 217.1 L 953.1 215.4 L 954.9 213.6 L 956.7 211.9 L 958.5 210.1 L 960.3 208.4 L 962.1 206.7 L 963.9 204.9 L 965.7 203.2 L 967.5 201.4 L 969.3 199.7 L 971.1 197.9 L 972.9 196.2 L 974.7 194.4 L 976.5 192.7 L 978.3 190.9 L 980.1 189.2 L 981.9 187.5 L 983.7 185.7 L 985.5 184.0 L 987.3 182.2 L 989.1 180.5 L 990.9 178.7 L 992.7 177.0 L 994.4 175.2 L 996.2 173.5 L 998.0 171.7 L 999.8 170.0 L 1001.6 168.3 L 1003.4 166.5 L 1005.2 164.8 L 1007.0 163.0 L 1008.8 161.3 L 1010.6 159.5 L 1012.4 157.8 L 1014.2 156.0 L 1016.0 154.3 L 1017.8 152.5 L 1019.6 150.8 L 1021.4 149.0 L 1023.2 147.3 L 1024.1 146.4 Z" fill="#8a58b7" />
    <path id="seg_010_outline" d="M 541.3 518.4 L 540.1 518.7 L 537.7 519.5 L 535.3 520.2 L 532.9 521.0 L 530.5 521.7 L 528.1 522.4 L 525.8 523.2 L 523.4 523.9 L 521.0 524.6 L 518.6 525.4 L 516.2 526.1 L 513.8 526.9 L 511.4 527.6 L 509.0 528.3 L 506.6 529.1 L 504.2 529.8 L 501.8 530.5 L 499.4 531.3 L 497.0 532.0 L 494.7 532.7 L 492.3 533.5 L 489.9 534.2 L 487.5 535.0 L 485.1 535.7 L 482.7 536.4 L 480.3 537.2 L 477.9 537.9 L 475.5 538.6 L 473.1 539.4 L 470.7 540.1 L 468.3 540.9 L 465.9 541.6 L 463.6 542.3 L 461.2 543.1 L 458.8 543.8 L 456.4 544.5 L 454.0 545.3 L 451.6 546.0 L 449.2 546.8 L 446.8 547.5 L 444.4 548.2 L 442.0 549.0 L 439.6 549.7 L 437.2 550.4 L 434.9 551.2 L 432.5 551.9 L 430.1 552.7 L 427.7 553.4 L 425.3 554.1 L 422.9 554.9 L 420.5 555.6 L 418.1 556.3 L 415.7 557.1 L 413.3 557.8 L 410.9 558.6 L 408.5 559.3 L 406.1 560.0 L 403.8 560.8 L 401.4 561.5 L 399.0 562.2 L 396.6 563.0 L 394.2 563.7 L 391.8 564.5 L 389.4 565.2 L 387.0 565.9 L 384.6 566.7 L 382.2 567.4 L 379.8 568.1 L 377.4 568.9 L 375.0 569.6 L 372.7 570.4 L 370.3 571.1 L 367.9 571.8 L 365.5 572.6 L 363.1 573.3 L 360.7 574.0 L 358.3 574.8 L 355.9 575.5 L 353.5 576.3 L 351.1 577.0 L 348.9 577.7 L 346.9 578.3 L 345.9 578.6 L 348.1 587.4 L 349.1 587.2 L 351.2 586.8 L 353.5 586.3 L 355.9 585.8 L 358.4 585.4 L 360.8 584.9 L 363.3 584.4 L 365.8 583.9 L 368.2 583.4 L 370.7 582.9 L 373.1 582.4 L 375.6 581.9 L 378.0 581.5 L 380.5 581.0 L 382.9 580.5 L 385.4 580.0 L 387.9 579.5 L 390.3 579.0 L 392.8 578.5 L 395.2 578.1 L 397.7 577.6 L 400.1 577.1 L 402.6 576.6 L 405.0 576.1 L 407.5 575.6 L 410.0 575.1 L 412.4 574.6 L 414.9 574.2 L 417.3 573.7 L 419.8 573.2 L 422.2 572.7 L 424.7 572.2 L 427.1 571.7 L 429.6 571.2 L 432.1 570.8 L 434.5 570.3 L 437.0 569.8 L 439.4 569.3 L 441.9 568.8 L 444.3 568.3 L 446.8 567.8 L 449.2 567.3 L 451.7 566.9 L 454.2 566.4 L 456.6 565.9 L 459.1 565.4 L 461.5 564.9 L 464.0 564.4 L 466.4 563.9 L 468.9 563.4 L 471.3 563.0 L 473.8 562.5 L 476.3 562.0 L 478.7 561.5 L 481.2 561.0 L 483.6 560.5 L 486.1 560.0 L 488.5 559.6 L 491.0 559.1 L 493.4 558.6 L 495.9 558.1 L 498.4 557.6 L 500.8 557.1 L 503.3 556.6 L 505.7 556.1 L 508.2 555.7 L 510.6 555.2 L 513.1 554.7 L 515.5 554.2 L 518.0 553.7 L 520.5 553.2 L 522.9 552.7 L 525.4 552.3 L 527.8 551.8 L 530.3 551.3 L 532.7 550.8 L 535.2 550.3 L 537.6 549.8 L 540.1 549.3 L 542.6 548.8 L 545.0 548.4 L 547.5 547.9 L 548.7 547.6 Z" fill="#47aa2c" />
    <path id="seg_011_outline" d="M 1121.6 479.4 L 1122.1 478.2 L 1123.3 476.0 L 1124.4 473.7 L 1125.6 471.5 L 1126.7 469.2 L 1127.9 466.9 L 1129.0 464.7 L 1130.2 462.4 L 1131.3 460.1 L 1132.5 457.9 L 1133.6 455.6 L 1134.8 453.4 L 1135.9 451.1 L 1137.1 448.8 L 1138.2 446.6 L 1139.3 444.3 L 1140.3 442.4 L 1141.2 440.7 L 1141.6 439.9 L 1136.4 436.1 L 1135.8 436.7 L 1134.4 438.0 L 1132.9 439.5 L 1131.0 441.2 L 1129.2 443.0 L 1127.4 444.7 L 1125.5 446.5 L 1123.7 448.2 L 1121.9 450.0 L 1120.0 451.7 L 1118.2 453.5 L 1116.4 455.2 L 1114.5 457.0 L 1112.7 458.8 L 1110.8 460.5 L 1109.0 462.3 L 1107.2 464.0 L 1105.3 465.8 L 1104.4 466.6 Z" fill="#f3336b" />
    <path id="seg_012_outline" d="M 985.7 829.9 L 986.2 831.1 L 987.0 833.5 L 987.9 835.8 L 988.8 838.2 L 989.7 840.5 L 990.5 842.9 L 991.4 845.2 L 992.3 847.6 L 993.2 849.9 L 994.0 852.3 L 994.9 854.6 L 995.8 857.0 L 996.7 859.3 L 997.5 861.7 L 998.4 864.0 L 999.3 866.4 L 1000.2 868.7 L 1001.0 871.1 L 1001.9 873.4 L 1002.8 875.8 L 1003.6 878.1 L 1004.5 880.5 L 1005.4 882.8 L 1006.3 885.2 L 1007.1 887.5 L 1008.0 889.9 L 1008.9 892.2 L 1009.8 894.6 L 1010.6 896.9 L 1011.5 899.3 L 1012.4 901.6 L 1013.3 904.0 L 1014.1 906.3 L 1015.0 908.7 L 1015.9 911.0 L 1016.8 913.4 L 1017.6 915.7 L 1018.5 918.1 L 1019.2 919.9 L 1019.7 921.2 L 1019.9 921.9 L 1026.1 920.1 L 1025.9 919.4 L 1025.7 918.1 L 1025.3 916.1 L 1024.8 913.7 L 1024.2 911.2 L 1023.7 908.8 L 1023.2 906.3 L 1022.7 903.9 L 1022.2 901.4 L 1021.7 898.9 L 1021.2 896.5 L 1020.7 894.0 L 1020.2 891.6 L 1019.7 889.1 L 1019.2 886.7 L 1018.7 884.2 L 1018.2 881.8 L 1017.7 879.3 L 1017.2 876.8 L 1016.6 874.4 L 1016.1 871.9 L 1015.6 869.5 L 1015.1 867.0 L 1014.6 864.6 L 1014.1 862.1 L 1013.6 859.7 L 1013.1 857.2 L 1012.6 854.7 L 1012.1 852.3 L 1011.6 849.8 L 1011.1 847.4 L 1010.6 844.9 L 1010.1 842.5 L 1009.6 840.0 L 1009.1 837.6 L 1008.5 835.1 L 1008.0 832.6 L 1007.5 830.2 L 1007.0 827.7 L 1006.5 825.3 L 1006.3 824.1 Z" fill="#23c2d6" />
  </g>
</svg>