<svg xmlns="http://www.w3.org/2000/svg" viewBox="0 0 1448 1086" width="1448" height="1086">
  <g id="editable-branches" fill="none" stroke-linecap="round" stroke-linejoin="round">
    <path id="seg_003" d="M 1126.0 299.0 C 1115.7 298.1 1106.0 297.7 1097.0 297.8 C 1077.7 298.9 1058.3 298.1 1039.0 295.2 C 1027.9 301.8 1013.7 296.2 996.2 278.5 C 978.4 265.5 969.2 255.2 968.8 247.5 C 951.8 228.3 942.4 222.8 940.8 231.0 C 930.6 222.3 921.1 221.7 912.2 229.0 C 900.2 226.2 886.6 230.3 871.5 241.2 C 851.2 240.1 833.5 248.9 818.5 267.8 C 783.5 287.2 769.8 300.1 777.5 306.5 C 757.2 322.2 747.5 339.2 748.5 357.5 C 740.7 361.7 735.8 370.2 734.0 383.0" stroke="#8956b7" stroke-width="15.6" />
    <path id="seg_008" d="M 653.0 610.0 C 650.8 619.8 647.7 628.7 643.8 636.8 C 640.9 659.2 634.8 677.1 625.2 690.2 C 632.0 704.8 615.6 721.9 576.0 741.5 C 548.0 765.8 521.3 782.2 496.0 790.5 C 469.7 799.5 454.7 813.8 451.0 833.5 C 430.3 849.8 427.0 862.2 441.0 870.5 C 427.8 882.1 434.3 892.5 460.8 901.8 C 467.2 924.2 483.8 932.8 510.2 927.2 C 537.2 941.9 565.9 945.6 596.2 938.2 C 635.1 936.4 675.9 935.2 718.8 934.8 C 736.0 927.7 756.4 927.1 780.0 933.0" stroke="#046bc8" stroke-width="17.2" />
    <path id="seg_007" d="M 1140.0 803.0 C 1127.0 799.8 1114.7 801.7 1103.0 808.5 C 1067.7 816.2 1043.0 819.8 1029.0 819.5 C 1014.5 824.9 995.7 824.2 972.5 817.2 C 960.8 814.1 947.8 808.9 933.5 801.8 C 918.8 798.6 907.5 791.4 899.5 780.2 C 885.8 777.1 876.2 767.9 870.5 752.8 C 852.7 735.2 844.5 719.8 846.0 706.5 C 832.7 683.5 826.0 661.8 826.0 641.5 C 820.0 627.7 816.7 616.8 816.0 609.0" stroke="#1dbed1" stroke-width="16.8" />
    <path id="seg_001" d="M 1251.0 608.0 C 1244.5 609.0 1237.7 608.0 1230.5 605.0 C 1218.2 611.0 1204.5 609.0 1189.5 599.0 C 1173.7 603.2 1160.8 593.7 1151.0 570.5 C 1147.0 550.8 1135.0 533.8 1115.0 519.5 C 1085.6 489.2 1059.0 485.5 1035.2 508.5 C 1000.1 506.2 958.9 515.8 911.8 537.5 C 891.3 550.7 870.8 555.5 850.0 552.0" stroke="#ed3468" stroke-width="16.5" />
    <path id="seg_006" d="M 170.0 307.0 C 194.0 313.5 218.0 307.0 242.0 287.5 C 276.7 311.8 324.7 298.8 386.0 248.5 C 423.8 221.8 456.7 219.8 484.5 242.8 C 496.8 235.2 514.5 244.4 537.5 270.2 C 552.7 268.0 566.2 281.9 578.0 312.0 C 598.0 333.3 607.3 352.0 606.0 368.0 C 616.0 382.7 620.7 392.0 620.0 396.0" stroke="#fc8b05" stroke-width="15.0" />
    <path id="seg_009" d="M 207.0 723.0 C 214.7 722.8 221.7 720.3 228.0 715.5 C 242.0 718.5 256.0 713.5 270.0 700.5 C 293.2 695.2 304.7 683.8 304.2 666.5 C 313.8 648.8 322.6 631.2 330.8 613.5 C 336.0 603.0 340.4 594.2 344.0 587.0" stroke="#49ad2e" stroke-width="4.5" />
    <path id="seg_002" d="M 306.0 165.0 C 349.2 159.0 384.7 186.3 412.3 247.0" stroke="#fd8e07" stroke-width="10.9" />
    <path id="seg_004" d="M 170.0 568.0 C 228.7 556.3 287.3 561.3 346.0 583.0" stroke="#4aad2e" stroke-width="4.5" />
    <path id="seg_005" d="M 1022.0 144.0 C 956.8 164.6 926.0 193.3 929.5 230.2" stroke="#8b59b8" stroke-width="10.8" />
    <path id="seg_010" d="M 545.0 533.0 C 469.7 580.3 403.7 597.0 347.0 583.0" stroke="#47aa2c" stroke-width="15.1" />
    <path id="seg_011" d="M 1106.7 518.4 C 1115.0 470.0 1125.8 443.2 1139.0 438.0" stroke="#f03469" stroke-width="4.5" />
    <path id="seg_012" d="M 996.4 818.2 C 1005.7 859.7 1014.5 893.9 1023.0 921.0" stroke="#23c2d5" stroke-width="4.9" />
  </g>
</svg>