<svg xmlns="http://www.w3.org/2000/svg" viewBox="0 0 1448 1086" width="1448" height="1086">
  <g id="variable-width-branches" stroke="none">
    <path id="seg_003_outline" d="M 1126.2 294.9 L 1124.9 294.9 L 1122.4 294.8 L 1119.9 294.7 L 1117.4 294.6 L 1114.9 294.5 L 1112.4 294.4 L 1109.9 294.3 L 1107.4 294.1 L 1104.9 293.9 L 1102.5 293.8 L 1100.0 293.6 L 1097.5 293.4 L 1095.0 293.3 L 1092.5 293.1 L 1090.0 293.0 L 1087.5 292.8 L 1085.0 292.7 L 1082.5 292.5 L 1080.0 292.4 L 1077.5 292.2 L 1075.0 292.0 L 1072.5 291.9 L 1070.0 291.7 L 1067.5 291.5 L 1065.0 291.4 L 1062.5 291.2 L 1060.0 291.0 L 1057.5 290.9 L 1055.0 290.7 L 1052.5 290.6 L 1050.0 290.5 L 1047.5 290.4 L 1045.2 290.3 L 1042.9 290.2 L 1040.8 289.9 L 1038.8 289.5 L 1036.8 288.8 L 1034.6 287.9 L 1032.4 287.0 L 1030.0 286.1 L 1027.7 285.2 L 1025.4 284.3 L 1023.1 283.3 L 1020.8 282.4 L 1018.4 281.5 L 1016.1 280.6 L 1013.8 279.6 L 1011.5 278.7 L 1009.1 277.8 L 1006.8 276.8 L 1004.6 276.0 L 1002.5 275.1 L 1000.7 274.2 L 999.2 273.3 L 997.8 272.0 L 996.5 270.3 L 995.0 268.6 L 993.4 266.7 L 991.8 264.8 L 990.1 262.9 L 988.5 261.0 L 986.9 259.1 L 985.3 257.1 L 983.7 255.2 L 982.1 253.3 L 980.5 251.4 L 978.8 249.5 L 977.2 247.5 L 975.4 245.4 L 973.3 243.2 L 971.1 241.3 L 968.6 239.7 L 966.3 238.2 L 964.3 236.7 L 962.2 235.3 L 960.2 233.8 L 958.2 232.3 L 956.1 230.9 L 954.1 229.4 L 952.0 228.0 L 949.7 226.4 L 947.1 224.7 L 944.1 223.3 L 940.8 222.3 L 937.7 221.7 L 934.8 221.4 L 932.1 221.1 L 929.6 220.8 L 927.1 220.5 L 924.7 220.2 L 922.2 219.9 L 919.7 219.6 L 916.8 219.3 L 913.5 219.0 L 910.2 219.3 L 906.8 220.0 L 903.9 220.8 L 901.4 221.5 L 899.0 222.3 L 896.6 223.0 L 894.2 223.7 L 891.8 224.4 L 889.4 225.1 L 887.0 225.7 L 884.6 226.3 L 882.1 226.9 L 879.7 227.4 L 877.2 228.0 L 874.7 228.6 L 872.1 229.2 L 869.3 229.9 L 866.5 230.8 L 863.7 231.8 L 861.1 232.9 L 858.7 233.9 L 856.3 234.9 L 854.0 235.8 L 851.7 236.8 L 849.4 237.8 L 847.1 238.8 L 844.8 239.7 L 842.5 240.7 L 840.2 241.7 L 837.9 242.6 L 835.5 243.6 L 833.2 244.5 L 830.9 245.5 L 828.6 246.5 L 826.3 247.5 L 824.0 248.5 L 821.7 249.5 L 819.4 250.5 L 816.9 251.6 L 814.1 252.9 L 811.1 254.6 L 808.1 256.5 L 805.4 258.5 L 803.1 260.5 L 801.0 262.2 L 799.1 263.8 L 797.1 265.4 L 795.2 267.0 L 793.3 268.7 L 791.4 270.3 L 789.5 271.9 L 787.6 273.5 L 785.7 275.1 L 783.7 276.7 L 781.8 278.4 L 779.9 280.0 L 778.0 281.6 L 776.1 283.2 L 774.2 284.9 L 772.3 286.5 L 770.3 288.2 L 768.1 290.1 L 765.7 292.4 L 763.1 295.2 L 760.8 298.1 L 758.9 301.1 L 757.3 303.7 L 756.0 305.8 L 754.7 307.9 L 753.4 310.1 L 752.1 312.2 L 750.7 314.3 L 749.4 316.4 L 748.1 318.6 L 746.8 320.7 L 745.4 322.8 L 744.1 324.9 L 742.8 327.1 L 741.5 329.2 L 740.1 331.3 L 738.8 333.4 L 737.5 335.5 L 736.2 337.7 L 734.9 339.8 L 733.5 341.9 L 732.2 344.0 L 730.9 346.1 L 729.5 348.3 L 728.2 350.4 L 726.8 352.5 L 725.5 354.6 L 724.2 356.8 L 722.9 358.9 L 721.7 361.1 L 720.4 363.2 L 719.1 365.4 L 717.8 367.5 L 716.6 369.7 L 715.7 371.1 L 715.2 371.8 L 715.0 372.2 L 753.0 393.8 L 753.2 393.4 L 753.6 392.7 L 754.4 391.2 L 755.6 389.0 L 756.8 386.8 L 758.0 384.6 L 759.2 382.4 L 760.4 380.2 L 761.5 378.0 L 762.7 375.8 L 763.9 373.6 L 765.0 371.3 L 766.1 369.1 L 767.3 366.9 L 768.4 364.6 L 769.5 362.4 L 770.7 360.2 L 771.8 358.0 L 773.0 355.7 L 774.1 353.5 L 775.3 351.3 L 776.4 349.1 L 777.6 346.8 L 778.7 344.6 L 779.9 342.4 L 781.0 340.2 L 782.2 337.9 L 783.3 335.7 L 784.5 333.5 L 785.6 331.3 L 786.7 329.0 L 787.9 326.8 L 789.1 324.6 L 790.2 322.4 L 791.1 320.6 L 791.7 319.2 L 792.3 318.1 L 793.0 317.3 L 794.1 316.1 L 795.6 314.5 L 797.2 312.8 L 798.9 311.0 L 800.7 309.2 L 802.4 307.4 L 804.1 305.6 L 805.8 303.8 L 807.6 301.9 L 809.3 300.1 L 811.0 298.3 L 812.7 296.5 L 814.5 294.7 L 816.2 292.9 L 817.9 291.0 L 819.6 289.2 L 821.3 287.4 L 823.0 285.5 L 824.5 283.9 L 825.8 282.4 L 827.0 281.2 L 828.0 280.3 L 829.3 279.4 L 831.0 278.4 L 832.9 277.4 L 835.0 276.1 L 837.2 274.9 L 839.4 273.6 L 841.6 272.4 L 843.7 271.1 L 845.9 269.9 L 848.1 268.6 L 850.2 267.4 L 852.4 266.1 L 854.5 264.8 L 856.7 263.5 L 858.9 262.3 L 861.0 261.0 L 863.2 259.7 L 865.4 258.5 L 867.5 257.2 L 869.7 255.9 L 871.7 254.7 L 873.6 253.6 L 875.4 252.6 L 877.2 251.7 L 879.2 250.8 L 881.3 250.0 L 883.6 249.2 L 885.9 248.3 L 888.3 247.4 L 890.6 246.5 L 893.0 245.7 L 895.4 244.9 L 897.7 244.1 L 900.1 243.4 L 902.5 242.6 L 904.9 241.9 L 907.3 241.2 L 909.6 240.5 L 911.5 239.9 L 913.0 239.4 L 914.5 239.2 L 916.2 239.3 L 918.3 239.3 L 920.8 239.4 L 923.3 239.5 L 925.8 239.5 L 928.3 239.6 L 930.8 239.6 L 933.1 239.7 L 935.2 239.7 L 937.0 239.8 L 938.4 240.0 L 939.9 240.5 L 941.6 241.4 L 943.6 242.3 L 945.8 243.4 L 948.1 244.5 L 950.3 245.6 L 952.6 246.7 L 954.9 247.7 L 957.2 248.8 L 959.4 249.9 L 961.5 250.9 L 963.3 251.9 L 964.9 253.0 L 966.3 254.4 L 967.9 256.0 L 969.5 257.8 L 971.2 259.6 L 972.9 261.4 L 974.6 263.2 L 976.4 265.1 L 978.1 266.9 L 979.8 268.7 L 981.4 270.6 L 983.1 272.4 L 984.8 274.2 L 986.5 276.1 L 988.4 278.0 L 990.4 280.1 L 992.7 282.0 L 995.3 283.6 L 997.9 285.0 L 1000.4 286.0 L 1002.9 286.9 L 1005.2 287.8 L 1007.6 288.7 L 1009.9 289.6 L 1012.2 290.5 L 1014.6 291.4 L 1016.9 292.3 L 1019.2 293.2 L 1021.6 294.1 L 1023.9 295.0 L 1026.2 295.9 L 1028.6 296.8 L 1031.0 297.7 L 1033.5 298.7 L 1036.1 299.5 L 1038.9 300.2 L 1041.7 300.6 L 1044.5 300.7 L 1047.1 300.8 L 1049.6 300.9 L 1052.1 301.0 L 1054.6 301.1 L 1057.1 301.2 L 1059.6 301.3 L 1062.1 301.3 L 1064.6 301.4 L 1067.1 301.4 L 1069.6 301.4 L 1072.1 301.5 L 1074.6 301.5 L 1077.1 301.6 L 1079.6 301.7 L 1082.1 301.7 L 1084.6 301.8 L 1087.1 301.8 L 1089.6 301.9 L 1092.1 302.0 L 1094.6 302.0 L 1097.1 302.1 L 1099.6 302.1 L 1102.1 302.2 L 1104.6 302.2 L 1107.1 302.3 L 1109.6 302.3 L 1112.1 302.4 L 1114.6 302.5 L 1117.1 302.7 L 1119.6 302.8 L 1122.1 302.9 L 1124.6 303.0 L 1125.8 303.1 Z" fill="#8956b7" />
    <path id="seg_009_outline" d="M 630.4 602.2 L 630.0 603.4 L 629.3 605.8 L 628.5 608.1 L 627.8 610.5 L 627.1 612.9 L 626.3 615.3 L 625.6 617.7 L 624.8 620.1 L 624.1 622.5 L 623.4 624.9 L 622.7 627.3 L 622.0 629.7 L 621.3 632.1 L 620.7 634.5 L 620.0 637.0 L 619.4 639.4 L 618.7 641.8 L 618.1 644.2 L 617.5 646.7 L 616.9 649.1 L 616.2 651.5 L 615.6 653.9 L 614.9 656.3 L 614.3 658.8 L 613.6 661.2 L 612.9 663.6 L 612.2 666.0 L 611.6 668.4 L 610.9 670.8 L 610.2 673.2 L 609.5 675.6 L 608.8 678.0 L 608.6 679.5 L 608.8 680.0 L 608.8 680.5 L 608.4 680.8 L 607.5 682.0 L 605.9 683.9 L 604.3 685.9 L 602.8 687.9 L 601.2 689.8 L 599.7 691.8 L 598.1 693.8 L 596.5 695.7 L 594.9 697.7 L 593.4 699.6 L 591.7 701.5 L 590.1 703.4 L 588.5 705.3 L 586.9 707.2 L 585.2 709.1 L 583.6 711.0 L 581.9 712.9 L 580.3 714.8 L 578.6 716.6 L 576.9 718.5 L 575.3 720.3 L 573.6 722.2 L 571.9 724.0 L 570.2 725.8 L 568.7 727.4 L 567.6 728.7 L 566.3 729.7 L 565.1 730.6 L 563.5 731.7 L 561.5 732.9 L 559.5 734.2 L 557.4 735.6 L 555.4 737.0 L 553.3 738.5 L 551.3 739.9 L 549.2 741.4 L 547.2 742.9 L 545.2 744.4 L 543.2 745.8 L 541.2 747.3 L 539.1 748.8 L 537.1 750.3 L 535.1 751.7 L 533.0 753.2 L 531.0 754.7 L 529.0 756.2 L 527.0 757.7 L 524.9 759.1 L 522.9 760.6 L 520.9 762.1 L 518.8 763.6 L 516.8 765.0 L 514.8 766.5 L 512.8 768.0 L 510.7 769.5 L 508.7 770.9 L 506.7 772.4 L 504.6 773.8 L 502.5 775.2 L 500.5 776.7 L 498.4 778.1 L 496.4 779.5 L 494.1 781.1 L 491.7 782.9 L 489.5 784.8 L 487.4 786.9 L 485.5 788.9 L 483.8 790.7 L 482.1 792.5 L 480.4 794.4 L 478.7 796.2 L 477.0 798.0 L 475.3 799.8 L 473.5 801.6 L 471.8 803.4 L 470.0 805.2 L 468.3 807.0 L 466.5 808.8 L 464.8 810.6 L 463.0 812.4 L 461.3 814.2 L 459.6 816.0 L 457.9 817.8 L 456.2 819.6 L 454.4 821.5 L 452.7 823.3 L 450.9 825.3 L 448.8 827.5 L 447.1 830.0 L 445.7 832.9 L 444.6 835.6 L 443.8 838.3 L 443.1 840.9 L 442.5 843.3 L 441.8 845.7 L 441.2 848.2 L 440.6 850.6 L 440.1 853.0 L 439.6 855.5 L 439.2 858.0 L 438.8 860.4 L 438.3 862.9 L 437.9 865.8 L 437.4 869.0 L 437.9 872.0 L 439.5 874.9 L 440.9 877.4 L 442.4 879.5 L 443.8 881.6 L 445.1 883.7 L 446.6 885.8 L 448.1 887.8 L 449.6 889.8 L 451.1 891.8 L 452.6 893.7 L 454.2 895.7 L 455.7 897.8 L 457.2 900.0 L 459.0 902.0 L 461.0 903.7 L 463.2 905.2 L 465.5 906.4 L 467.8 907.6 L 470.0 908.8 L 472.2 909.9 L 474.4 911.1 L 476.6 912.3 L 478.7 913.6 L 480.9 914.9 L 483.0 916.1 L 485.2 917.4 L 487.4 918.6 L 489.5 919.9 L 491.7 921.2 L 493.8 922.5 L 496.0 923.8 L 498.1 925.1 L 500.3 926.4 L 502.5 927.7 L 504.7 929.1 L 507.2 930.3 L 509.8 931.5 L 512.5 932.2 L 515.2 932.7 L 517.8 933.2 L 520.3 933.6 L 522.7 934.0 L 525.2 934.4 L 527.7 934.7 L 530.1 935.0 L 532.6 935.4 L 535.1 935.7 L 537.6 936.0 L 540.1 936.3 L 542.5 936.6 L 545.0 936.9 L 547.5 937.3 L 550.0 937.6 L 552.5 937.9 L 554.9 938.2 L 557.4 938.5 L 559.9 938.8 L 562.4 939.2 L 564.9 939.5 L 567.3 939.8 L 569.8 940.1 L 572.3 940.4 L 574.8 940.7 L 577.3 941.1 L 579.7 941.4 L 582.2 941.7 L 584.7 942.0 L 587.2 942.3 L 589.7 942.7 L 592.3 943.0 L 595.0 943.3 L 597.6 943.4 L 600.3 943.3 L 602.9 943.3 L 605.4 943.2 L 607.9 943.1 L 610.4 943.0 L 612.9 943.0 L 615.4 942.9 L 617.9 942.8 L 620.4 942.8 L 622.9 942.7 L 625.4 942.6 L 627.9 942.5 L 630.4 942.5 L 632.9 942.4 L 635.4 942.3 L 637.9 942.3 L 640.4 942.2 L 642.9 942.1 L 645.4 942.0 L 647.9 942.0 L 650.4 941.9 L 652.9 941.8 L 655.4 941.8 L 657.9 941.7 L 660.4 941.6 L 662.9 941.5 L 665.4 941.5 L 667.9 941.4 L 670.4 941.3 L 672.9 941.3 L 675.4 941.2 L 677.9 941.1 L 680.4 941.0 L 682.9 941.0 L 685.4 940.9 L 687.9 940.8 L 690.4 940.8 L 692.9 940.7 L 695.4 940.6 L 697.9 940.5 L 700.4 940.5 L 702.9 940.4 L 705.4 940.3 L 707.9 940.3 L 710.4 940.2 L 712.9 940.1 L 715.4 940.0 L 717.9 940.0 L 720.4 939.9 L 722.9 939.8 L 725.4 939.8 L 727.9 939.7 L 730.4 939.6 L 732.9 939.5 L 735.4 939.5 L 737.9 939.4 L 740.4 939.3 L 742.9 939.3 L 745.4 939.2 L 747.9 939.1 L 750.4 939.0 L 752.9 939.0 L 755.4 938.9 L 757.9 938.8 L 760.4 938.8 L 762.9 938.7 L 765.4 938.6 L 767.9 938.5 L 770.4 938.5 L 772.9 938.4 L 775.4 938.3 L 777.5 938.3 L 779.3 938.2 L 780.1 938.2 L 779.9 927.8 L 779.0 927.8 L 777.2 927.9 L 775.1 927.9 L 772.6 928.0 L 770.1 928.1 L 767.6 928.2 L 765.1 928.2 L 762.6 928.3 L 760.1 928.4 L 757.6 928.4 L 755.1 928.5 L 752.6 928.6 L 750.1 928.7 L 747.6 928.7 L 745.1 928.8 L 742.6 928.9 L 740.1 928.9 L 737.6 929.0 L 735.1 929.1 L 732.6 929.2 L 730.1 929.2 L 727.6 929.3 L 725.1 929.4 L 722.6 929.4 L 720.1 929.5 L 717.6 929.6 L 715.1 929.7 L 712.6 929.7 L 710.1 929.8 L 707.6 929.9 L 705.1 929.9 L 702.6 930.0 L 700.1 930.1 L 697.6 930.2 L 695.1 930.2 L 692.6 930.3 L 690.1 930.4 L 687.6 930.4 L 685.1 930.5 L 682.6 930.6 L 680.1 930.7 L 677.6 930.7 L 675.1 930.8 L 672.6 930.9 L 670.1 930.9 L 667.6 931.0 L 665.1 931.1 L 662.6 931.2 L 660.1 931.2 L 657.6 931.3 L 655.1 931.4 L 652.6 931.4 L 650.1 931.5 L 647.6 931.6 L 645.1 931.7 L 642.6 931.7 L 640.1 931.8 L 637.6 931.9 L 635.1 931.9 L 632.6 932.0 L 630.1 932.1 L 627.6 932.2 L 625.1 932.2 L 622.6 932.3 L 620.1 932.4 L 617.6 932.4 L 615.1 932.5 L 612.6 932.6 L 610.1 932.7 L 607.6 932.7 L 605.1 932.8 L 602.6 932.9 L 600.2 932.9 L 597.9 933.0 L 595.6 932.9 L 593.3 932.6 L 591.0 932.3 L 588.5 932.0 L 586.0 931.7 L 583.5 931.4 L 581.1 931.1 L 578.6 930.7 L 576.1 930.4 L 573.6 930.1 L 571.1 929.8 L 568.7 929.5 L 566.2 929.2 L 563.7 928.8 L 561.2 928.5 L 558.7 928.2 L 556.3 927.9 L 553.8 927.6 L 551.3 927.3 L 548.8 926.9 L 546.3 926.6 L 543.9 926.3 L 541.4 926.0 L 538.9 925.7 L 536.4 925.4 L 533.9 925.0 L 531.5 924.7 L 529.0 924.4 L 526.5 924.1 L 524.0 923.9 L 521.5 923.6 L 519.0 923.4 L 516.7 923.2 L 514.4 923.1 L 512.3 922.7 L 510.3 922.2 L 508.2 921.5 L 506.0 920.6 L 503.8 919.6 L 501.5 918.6 L 499.2 917.6 L 496.9 916.6 L 494.5 915.6 L 492.2 914.7 L 490.0 913.6 L 487.7 912.6 L 485.4 911.5 L 483.1 910.5 L 480.9 909.5 L 478.6 908.5 L 476.3 907.4 L 474.0 906.3 L 471.8 905.2 L 469.6 904.1 L 467.4 902.9 L 465.3 901.9 L 463.4 900.6 L 461.8 899.2 L 460.4 897.4 L 459.3 895.4 L 458.1 893.2 L 457.0 891.0 L 455.9 888.8 L 454.7 886.5 L 453.6 884.3 L 452.4 882.1 L 451.1 879.9 L 449.9 877.8 L 448.6 875.6 L 447.3 873.5 L 446.3 871.8 L 445.5 870.4 L 445.5 868.9 L 446.3 867.3 L 447.1 865.3 L 448.0 862.9 L 448.9 860.6 L 449.7 858.2 L 450.6 855.9 L 451.3 853.5 L 452.1 851.1 L 452.7 848.7 L 453.4 846.3 L 454.1 843.9 L 454.7 841.6 L 455.2 839.5 L 455.9 837.7 L 456.7 836.3 L 457.9 835.0 L 459.5 833.7 L 461.3 832.2 L 463.2 830.6 L 465.1 829.0 L 467.0 827.4 L 468.9 825.7 L 470.8 824.1 L 472.7 822.4 L 474.5 820.8 L 476.4 819.1 L 478.2 817.4 L 480.1 815.8 L 482.0 814.1 L 483.9 812.5 L 485.7 810.8 L 487.6 809.2 L 489.5 807.5 L 491.4 805.9 L 493.3 804.3 L 495.2 802.7 L 497.1 801.0 L 498.9 799.5 L 500.4 798.2 L 502.1 797.1 L 504.0 796.2 L 506.0 795.1 L 508.2 794.0 L 510.4 792.8 L 512.6 791.6 L 514.8 790.4 L 517.0 789.2 L 519.2 788.1 L 521.4 786.9 L 523.7 785.8 L 525.9 784.6 L 528.1 783.5 L 530.4 782.4 L 532.6 781.3 L 534.9 780.1 L 537.1 779.0 L 539.3 777.8 L 541.6 776.7 L 543.8 775.6 L 546.0 774.4 L 548.3 773.3 L 550.5 772.2 L 552.7 771.0 L 555.0 769.9 L 557.2 768.8 L 559.5 767.6 L 561.7 766.5 L 563.9 765.4 L 566.2 764.2 L 568.4 763.1 L 570.6 761.9 L 572.8 760.7 L 575.0 759.5 L 577.2 758.2 L 579.6 756.8 L 582.1 755.2 L 585.0 753.2 L 587.6 751.1 L 589.8 748.8 L 591.9 746.7 L 593.6 744.9 L 595.4 743.2 L 597.2 741.4 L 598.9 739.6 L 600.7 737.9 L 602.5 736.2 L 604.4 734.4 L 606.2 732.7 L 608.0 731.0 L 609.8 729.3 L 611.7 727.6 L 613.5 725.9 L 615.3 724.2 L 617.2 722.5 L 619.1 720.8 L 620.9 719.2 L 622.8 717.5 L 624.7 715.9 L 626.6 714.2 L 628.5 712.6 L 630.5 711.0 L 632.4 709.3 L 634.2 707.7 L 636.7 705.2 L 639.9 702.0 L 642.4 698.3 L 644.3 694.1 L 645.7 690.9 L 646.6 688.5 L 647.6 686.2 L 648.5 683.8 L 649.5 681.5 L 650.4 679.2 L 651.4 676.9 L 652.4 674.6 L 653.3 672.3 L 654.3 670.0 L 655.3 667.7 L 656.3 665.4 L 657.3 663.1 L 658.3 660.8 L 659.3 658.5 L 660.3 656.2 L 661.3 653.9 L 662.3 651.6 L 663.3 649.3 L 664.2 647.0 L 665.2 644.6 L 666.2 642.3 L 667.1 640.0 L 668.0 637.7 L 668.9 635.3 L 669.8 633.0 L 670.7 630.7 L 671.6 628.3 L 672.5 626.0 L 673.4 623.7 L 674.3 621.3 L 675.2 619.0 L 675.6 617.8 Z" fill="#046bc8" />
    <path id="seg_008_outline" d="M 1139.2 797.9 L 1138.0 798.1 L 1135.5 798.5 L 1133.1 798.8 L 1130.6 799.1 L 1128.1 799.5 L 1125.6 799.8 L 1123.1 800.2 L 1120.7 800.5 L 1118.2 800.8 L 1115.7 801.2 L 1113.2 801.5 L 1110.8 801.8 L 1108.3 802.1 L 1105.8 802.4 L 1103.3 802.7 L 1100.8 803.0 L 1098.3 803.3 L 1095.9 803.6 L 1093.4 803.9 L 1090.9 804.2 L 1088.4 804.6 L 1085.9 804.9 L 1083.5 805.2 L 1081.0 805.5 L 1078.5 805.8 L 1076.0 806.2 L 1073.5 806.5 L 1071.1 806.8 L 1068.6 807.2 L 1066.1 807.5 L 1063.6 807.8 L 1061.2 808.2 L 1058.7 808.5 L 1056.2 808.9 L 1053.7 809.3 L 1051.3 809.6 L 1048.8 810.0 L 1046.3 810.4 L 1043.8 810.7 L 1041.4 811.1 L 1038.9 811.4 L 1036.4 811.7 L 1034.0 811.9 L 1031.7 812.1 L 1029.4 812.1 L 1027.3 811.9 L 1025.0 811.6 L 1022.7 811.1 L 1020.3 810.7 L 1017.8 810.3 L 1015.3 809.8 L 1012.9 809.4 L 1010.4 809.0 L 1007.9 808.6 L 1005.4 808.2 L 1002.9 807.9 L 1000.4 807.5 L 997.9 807.2 L 995.4 806.9 L 993.0 806.6 L 990.5 806.3 L 988.0 806.0 L 985.5 805.7 L 983.0 805.5 L 980.6 805.3 L 978.4 805.1 L 976.6 805.0 L 975.1 804.8 L 973.6 804.5 L 972.0 803.8 L 970.1 803.1 L 967.7 802.2 L 965.4 801.4 L 963.0 800.5 L 960.7 799.6 L 958.4 798.6 L 956.1 797.7 L 953.8 796.7 L 951.5 795.7 L 949.2 794.6 L 946.9 793.6 L 944.7 792.5 L 942.6 791.6 L 940.8 790.8 L 939.2 789.8 L 937.6 788.7 L 935.9 787.4 L 933.9 786.0 L 931.9 784.6 L 929.9 783.1 L 927.8 781.7 L 925.8 780.2 L 923.8 778.8 L 921.7 777.3 L 919.7 775.8 L 917.7 774.4 L 915.6 772.9 L 913.6 771.4 L 911.8 770.2 L 910.3 769.0 L 908.9 767.8 L 907.7 766.6 L 906.3 765.1 L 904.7 763.4 L 903.0 761.6 L 901.3 759.8 L 899.5 758.0 L 897.8 756.2 L 896.0 754.4 L 894.3 752.6 L 892.6 750.8 L 890.8 749.0 L 889.1 747.2 L 887.3 745.4 L 886.0 744.1 L 885.0 743.1 L 884.2 742.1 L 883.8 741.1 L 883.1 739.6 L 882.1 737.6 L 881.1 735.4 L 880.0 733.2 L 878.9 730.9 L 877.8 728.7 L 876.8 726.4 L 875.7 724.2 L 874.6 721.9 L 873.5 719.7 L 872.4 717.4 L 871.3 715.2 L 870.2 712.9 L 869.1 710.7 L 868.0 708.4 L 866.9 706.2 L 865.9 704.1 L 865.0 702.1 L 864.2 700.3 L 863.7 698.9 L 863.1 697.2 L 862.7 695.3 L 862.2 693.2 L 861.5 690.7 L 860.9 688.3 L 860.3 685.9 L 859.6 683.5 L 859.0 681.1 L 858.4 678.6 L 857.7 676.2 L 857.1 673.8 L 856.4 671.4 L 855.8 669.0 L 855.2 666.6 L 854.5 664.1 L 853.8 661.7 L 853.2 659.3 L 852.5 656.9 L 851.9 654.5 L 851.2 652.1 L 850.6 649.7 L 849.9 647.2 L 849.2 644.8 L 848.6 642.4 L 847.9 640.0 L 847.2 637.6 L 846.5 635.2 L 845.8 632.8 L 845.2 630.4 L 844.5 628.0 L 843.8 625.6 L 843.1 623.2 L 842.4 620.8 L 841.6 618.4 L 840.9 616.0 L 840.2 613.6 L 839.5 611.2 L 838.8 608.8 L 838.1 606.4 L 837.4 604.0 L 837.1 602.8 L 795.1 615.7 L 795.5 616.9 L 796.2 619.3 L 797.0 621.7 L 797.8 624.0 L 798.5 626.4 L 799.3 628.8 L 800.1 631.2 L 800.8 633.6 L 801.6 636.0 L 802.4 638.3 L 803.1 640.7 L 803.9 643.1 L 804.7 645.5 L 805.5 647.8 L 806.3 650.2 L 807.1 652.6 L 807.9 654.9 L 808.7 657.3 L 809.5 659.7 L 810.3 662.1 L 811.1 664.4 L 811.9 666.8 L 812.7 669.2 L 813.5 671.5 L 814.3 673.9 L 815.2 676.2 L 816.0 678.6 L 816.8 681.0 L 817.6 683.3 L 818.5 685.7 L 819.3 688.0 L 820.1 690.4 L 821.0 692.8 L 821.8 695.1 L 822.6 697.5 L 823.4 699.9 L 824.3 702.2 L 825.1 704.6 L 826.1 707.2 L 827.1 710.1 L 828.3 713.1 L 829.8 716.2 L 831.2 718.9 L 832.6 721.3 L 834.0 723.6 L 835.2 725.8 L 836.5 728.0 L 837.7 730.1 L 839.0 732.3 L 840.2 734.5 L 841.5 736.6 L 842.7 738.8 L 844.0 741.0 L 845.2 743.1 L 846.5 745.3 L 847.7 747.5 L 849.0 749.6 L 850.2 751.8 L 851.5 754.1 L 852.9 756.5 L 854.7 759.3 L 856.8 762.5 L 859.2 765.4 L 861.8 767.9 L 864.1 769.9 L 866.0 771.6 L 867.8 773.2 L 869.7 774.9 L 871.6 776.5 L 873.5 778.2 L 875.4 779.8 L 877.3 781.5 L 879.2 783.1 L 881.1 784.7 L 883.0 786.4 L 885.0 788.1 L 887.3 790.0 L 889.8 792.0 L 892.5 793.8 L 895.1 795.4 L 897.6 796.8 L 899.8 798.0 L 902.0 799.2 L 904.2 800.4 L 906.4 801.6 L 908.6 802.8 L 910.7 804.0 L 912.9 805.2 L 915.1 806.5 L 917.3 807.7 L 919.5 808.9 L 921.8 810.2 L 924.3 811.5 L 927.1 813.0 L 929.9 814.2 L 932.7 815.2 L 935.3 816.1 L 937.7 816.9 L 940.0 817.7 L 942.4 818.5 L 944.8 819.4 L 947.1 820.2 L 949.5 821.1 L 951.8 822.0 L 954.1 822.9 L 956.4 823.9 L 958.7 824.9 L 961.0 825.9 L 963.7 827.0 L 966.7 828.2 L 970.0 829.0 L 973.5 829.5 L 976.6 829.8 L 979.4 829.8 L 982.0 829.8 L 984.5 829.8 L 987.0 829.7 L 989.5 829.6 L 992.0 829.5 L 994.5 829.4 L 997.1 829.3 L 999.6 829.1 L 1002.1 829.0 L 1004.6 828.9 L 1007.1 828.7 L 1009.6 828.5 L 1012.1 828.3 L 1014.6 828.1 L 1017.1 827.8 L 1019.6 827.6 L 1022.2 827.3 L 1024.9 827.1 L 1027.6 826.8 L 1030.5 826.4 L 1033.2 825.9 L 1035.8 825.3 L 1038.4 824.8 L 1040.8 824.4 L 1043.3 824.0 L 1045.8 823.6 L 1048.2 823.2 L 1050.7 822.8 L 1053.2 822.5 L 1055.6 822.1 L 1058.1 821.7 L 1060.6 821.4 L 1063.1 821.0 L 1065.5 820.6 L 1068.0 820.2 L 1070.5 819.8 L 1072.9 819.4 L 1075.4 819.0 L 1077.9 818.6 L 1080.3 818.2 L 1082.8 817.8 L 1085.3 817.3 L 1087.7 816.9 L 1090.2 816.5 L 1092.7 816.1 L 1095.1 815.7 L 1097.6 815.3 L 1100.1 814.8 L 1102.5 814.4 L 1105.0 814.0 L 1107.4 813.6 L 1109.9 813.1 L 1112.4 812.7 L 1114.8 812.2 L 1117.3 811.8 L 1119.8 811.4 L 1122.2 811.0 L 1124.7 810.6 L 1127.2 810.2 L 1129.6 809.8 L 1132.1 809.4 L 1134.6 809.0 L 1137.0 808.6 L 1139.5 808.3 L 1140.8 808.1 Z" fill="#1dbed1" />
    <path id="seg_001_outline" d="M 1251.6 604.1 L 1250.3 603.8 L 1247.9 603.4 L 1245.4 602.9 L 1243.0 602.5 L 1240.5 602.1 L 1238.0 601.7 L 1235.6 601.3 L 1233.1 600.9 L 1230.6 600.5 L 1228.2 600.1 L 1225.7 599.7 L 1223.2 599.3 L 1220.8 598.8 L 1218.3 598.4 L 1215.8 598.0 L 1213.4 597.6 L 1210.9 597.1 L 1208.4 596.7 L 1206.0 596.3 L 1203.5 595.8 L 1201.0 595.4 L 1198.6 595.0 L 1196.3 594.7 L 1194.2 594.4 L 1192.3 593.8 L 1190.7 593.1 L 1189.0 592.0 L 1187.3 590.7 L 1185.4 589.2 L 1183.4 587.7 L 1181.4 586.2 L 1179.4 584.7 L 1177.4 583.2 L 1175.4 581.7 L 1173.4 580.2 L 1171.5 578.7 L 1169.5 577.1 L 1167.5 575.6 L 1165.5 574.1 L 1163.5 572.6 L 1161.6 571.0 L 1159.6 569.5 L 1157.8 568.1 L 1156.2 566.9 L 1154.8 565.4 L 1153.7 563.7 L 1152.5 561.9 L 1151.1 559.8 L 1149.7 557.7 L 1148.3 555.6 L 1146.9 553.6 L 1145.5 551.5 L 1144.1 549.4 L 1142.7 547.3 L 1141.3 545.3 L 1139.9 543.2 L 1138.5 541.1 L 1137.0 539.1 L 1135.6 537.1 L 1134.2 535.0 L 1132.7 533.0 L 1131.1 531.0 L 1129.5 529.1 L 1127.8 527.3 L 1126.1 525.4 L 1124.4 523.5 L 1122.6 521.5 L 1120.6 519.3 L 1118.2 517.5 L 1115.3 516.1 L 1112.4 515.3 L 1109.5 515.2 L 1106.8 515.1 L 1104.2 515.1 L 1101.7 515.1 L 1099.2 515.0 L 1096.7 514.9 L 1094.2 514.6 L 1091.7 514.3 L 1089.3 513.9 L 1086.8 513.6 L 1084.3 513.2 L 1081.8 512.9 L 1079.3 512.6 L 1076.9 512.2 L 1074.4 511.9 L 1071.9 511.5 L 1069.4 511.2 L 1067.0 510.6 L 1064.6 509.9 L 1062.2 509.0 L 1059.8 508.2 L 1057.4 507.3 L 1055.0 506.5 L 1052.5 505.6 L 1050.1 504.7 L 1047.7 503.8 L 1045.3 502.9 L 1042.8 502.0 L 1040.1 501.1 L 1037.1 500.5 L 1033.8 500.0 L 1030.6 499.9 L 1027.6 500.0 L 1024.8 500.2 L 1022.3 500.3 L 1019.8 500.5 L 1017.2 500.8 L 1014.7 501.0 L 1012.2 501.3 L 1009.7 501.6 L 1007.3 502.0 L 1004.8 502.4 L 1002.3 502.8 L 999.8 503.2 L 997.4 503.6 L 994.9 504.0 L 992.4 504.5 L 990.0 504.9 L 987.5 505.3 L 985.0 505.6 L 982.5 506.0 L 980.0 506.4 L 977.6 506.8 L 975.1 507.2 L 972.6 507.6 L 970.2 508.1 L 967.7 508.5 L 965.2 508.9 L 962.8 509.3 L 960.3 509.7 L 957.8 510.2 L 955.3 510.6 L 952.9 511.0 L 950.4 511.5 L 948.0 511.9 L 945.5 512.3 L 943.0 512.8 L 940.6 513.2 L 938.1 513.6 L 935.6 514.0 L 933.1 514.5 L 930.7 514.9 L 928.2 515.3 L 925.7 515.7 L 923.3 516.1 L 920.8 516.6 L 918.3 517.0 L 915.9 517.4 L 913.4 517.8 L 910.9 518.2 L 908.4 518.6 L 906.0 519.0 L 903.5 519.4 L 901.0 519.8 L 898.5 520.2 L 896.1 520.6 L 893.6 521.0 L 891.1 521.4 L 888.6 521.8 L 886.2 522.2 L 883.7 522.7 L 881.2 523.1 L 878.8 523.6 L 876.3 524.0 L 873.9 524.5 L 871.4 524.9 L 868.9 525.4 L 866.5 525.9 L 864.0 526.4 L 861.6 526.9 L 859.1 527.4 L 856.7 527.9 L 854.3 528.4 L 851.8 529.0 L 849.4 529.5 L 847.3 529.9 L 845.7 530.3 L 844.9 530.5 L 855.1 573.5 L 855.8 573.3 L 857.4 573.0 L 859.5 572.5 L 861.9 571.8 L 864.3 571.2 L 866.7 570.6 L 869.1 570.0 L 871.6 569.3 L 874.0 568.7 L 876.4 568.0 L 878.8 567.4 L 881.2 566.7 L 883.6 566.0 L 886.0 565.3 L 888.4 564.7 L 890.8 564.0 L 893.2 563.3 L 895.6 562.6 L 898.0 561.8 L 900.4 561.1 L 902.8 560.4 L 905.2 559.6 L 907.6 558.9 L 910.0 558.1 L 912.4 557.4 L 914.8 556.7 L 917.2 555.9 L 919.6 555.2 L 922.0 554.4 L 924.4 553.7 L 926.8 553.0 L 929.2 552.2 L 931.6 551.5 L 934.0 550.8 L 936.4 550.0 L 938.8 549.3 L 941.2 548.6 L 943.6 547.9 L 946.0 547.2 L 948.4 546.4 L 950.8 545.7 L 953.2 545.0 L 955.6 544.3 L 958.0 543.6 L 960.4 542.9 L 962.8 542.2 L 965.2 541.5 L 967.6 540.8 L 970.0 540.0 L 972.4 539.3 L 974.8 538.6 L 977.2 537.9 L 979.6 537.1 L 982.0 536.4 L 984.4 535.7 L 986.8 535.0 L 989.1 534.2 L 991.5 533.4 L 993.9 532.7 L 996.3 531.9 L 998.7 531.2 L 1001.1 530.5 L 1003.5 529.7 L 1005.9 529.0 L 1008.3 528.3 L 1010.7 527.5 L 1013.1 526.8 L 1015.5 526.0 L 1017.8 525.2 L 1020.2 524.3 L 1022.6 523.4 L 1024.9 522.5 L 1027.3 521.6 L 1029.6 520.6 L 1031.7 519.6 L 1033.5 518.6 L 1035.2 517.9 L 1036.9 517.4 L 1038.8 517.0 L 1041.1 516.8 L 1043.5 516.6 L 1046.0 516.4 L 1048.6 516.2 L 1051.1 516.0 L 1053.7 515.8 L 1056.2 515.6 L 1058.8 515.4 L 1061.3 515.3 L 1063.8 515.1 L 1066.4 515.0 L 1068.9 515.2 L 1071.4 515.5 L 1073.8 515.8 L 1076.3 516.2 L 1078.8 516.5 L 1081.3 516.9 L 1083.8 517.2 L 1086.2 517.6 L 1088.7 517.9 L 1091.2 518.2 L 1093.7 518.6 L 1096.1 519.0 L 1098.6 519.5 L 1101.0 520.2 L 1103.4 520.8 L 1105.9 521.5 L 1108.1 522.1 L 1110.2 522.7 L 1111.7 523.4 L 1112.7 524.4 L 1113.7 525.8 L 1114.6 527.7 L 1115.6 529.7 L 1116.8 532.0 L 1118.0 534.2 L 1119.2 536.4 L 1120.5 538.6 L 1121.8 540.7 L 1123.2 542.8 L 1124.6 544.8 L 1126.1 546.8 L 1127.5 548.9 L 1129.0 550.9 L 1130.5 552.9 L 1131.9 555.0 L 1133.4 557.0 L 1134.9 559.0 L 1136.4 561.0 L 1137.9 563.0 L 1139.4 565.0 L 1140.9 567.0 L 1142.4 569.0 L 1144.0 571.2 L 1145.8 573.6 L 1147.9 575.6 L 1150.3 577.4 L 1152.6 579.0 L 1154.6 580.4 L 1156.6 581.9 L 1158.7 583.3 L 1160.7 584.8 L 1162.7 586.2 L 1164.8 587.7 L 1166.8 589.1 L 1168.9 590.6 L 1170.9 592.1 L 1172.9 593.5 L 1174.9 595.0 L 1177.0 596.5 L 1179.0 597.9 L 1181.1 599.5 L 1183.4 601.1 L 1185.9 602.5 L 1188.7 603.8 L 1191.6 604.6 L 1194.4 605.1 L 1197.1 605.4 L 1199.5 605.7 L 1202.0 606.0 L 1204.5 606.3 L 1207.0 606.6 L 1209.5 606.9 L 1212.0 607.2 L 1214.4 607.5 L 1216.9 607.8 L 1219.4 608.1 L 1221.9 608.4 L 1224.4 608.7 L 1226.8 609.0 L 1229.3 609.4 L 1231.8 609.7 L 1234.3 610.0 L 1236.8 610.3 L 1239.2 610.6 L 1241.7 610.9 L 1244.2 611.2 L 1246.7 611.5 L 1249.2 611.8 L 1250.4 611.9 Z" fill="#ed3468" />
    <path id="seg_007_outline" d="M 171.0 310.8 L 172.2 310.4 L 174.6 309.8 L 177.1 309.1 L 179.5 308.5 L 181.9 307.9 L 184.3 307.2 L 186.7 306.5 L 189.1 305.7 L 191.5 304.9 L 193.8 304.2 L 196.2 303.4 L 198.6 302.6 L 200.9 301.7 L 203.3 300.9 L 205.7 300.1 L 208.0 299.3 L 210.4 298.4 L 212.8 297.6 L 215.2 296.9 L 217.6 296.2 L 220.0 295.5 L 222.4 294.9 L 224.8 294.2 L 227.2 293.6 L 229.6 292.9 L 232.1 292.3 L 234.5 291.6 L 236.9 291.0 L 239.3 290.3 L 241.7 289.7 L 244.1 289.0 L 246.5 288.3 L 248.9 287.7 L 251.4 287.0 L 253.8 286.4 L 256.2 285.7 L 258.6 285.1 L 261.0 284.4 L 263.4 283.8 L 265.8 283.1 L 268.3 282.5 L 270.7 281.8 L 273.1 281.2 L 275.5 280.5 L 277.9 279.8 L 280.3 279.2 L 282.7 278.5 L 285.1 277.9 L 287.6 277.2 L 290.0 276.6 L 292.4 275.9 L 294.8 275.3 L 297.2 274.6 L 299.6 274.0 L 302.0 273.3 L 304.4 272.7 L 306.9 272.0 L 309.3 271.4 L 311.7 270.7 L 314.1 270.0 L 316.5 269.4 L 318.9 268.7 L 321.3 268.1 L 323.8 267.4 L 326.2 266.8 L 328.6 266.1 L 331.0 265.5 L 333.4 264.9 L 335.9 264.5 L 338.4 264.2 L 340.9 263.8 L 343.4 263.5 L 345.9 263.2 L 348.4 262.9 L 350.9 262.6 L 353.4 262.3 L 356.0 262.0 L 358.5 261.7 L 361.0 261.4 L 363.5 261.2 L 366.0 260.9 L 368.5 260.6 L 371.0 260.2 L 373.5 259.7 L 375.9 259.1 L 378.3 258.3 L 380.6 257.5 L 382.9 256.6 L 385.0 255.8 L 387.0 255.0 L 389.2 254.4 L 391.4 254.0 L 393.8 253.5 L 396.2 253.0 L 398.7 252.5 L 401.2 252.0 L 403.7 251.5 L 406.1 250.9 L 408.6 250.4 L 411.1 249.9 L 413.6 249.4 L 416.1 249.0 L 418.5 248.7 L 421.0 248.5 L 423.5 248.3 L 426.0 248.2 L 428.5 248.0 L 431.0 247.9 L 433.5 247.8 L 436.0 247.8 L 438.5 247.9 L 441.0 248.2 L 443.6 248.6 L 446.1 249.1 L 448.6 249.6 L 451.2 250.1 L 453.7 250.6 L 456.2 251.1 L 458.8 251.6 L 461.3 252.1 L 463.8 252.6 L 466.4 253.2 L 468.9 253.7 L 471.4 254.1 L 474.0 254.6 L 476.5 255.0 L 478.6 255.4 L 480.2 255.8 L 481.3 256.3 L 481.7 256.8 L 482.6 257.6 L 483.8 258.7 L 485.5 260.0 L 487.6 261.4 L 489.7 262.8 L 491.8 264.1 L 493.9 265.4 L 496.1 266.7 L 498.2 268.0 L 500.4 269.3 L 502.5 270.6 L 504.6 272.0 L 506.7 273.3 L 508.9 274.6 L 511.0 275.9 L 513.1 277.3 L 515.3 278.6 L 517.4 279.9 L 519.5 281.3 L 521.6 282.6 L 523.4 283.7 L 524.7 284.7 L 525.7 285.5 L 526.3 286.3 L 527.1 287.4 L 528.2 288.9 L 529.6 290.6 L 531.2 292.5 L 532.8 294.5 L 534.4 296.4 L 536.0 298.3 L 537.6 300.2 L 539.3 302.1 L 540.9 304.0 L 542.5 305.9 L 544.2 307.8 L 545.8 309.7 L 547.5 311.6 L 549.1 313.4 L 550.8 315.3 L 552.5 317.2 L 554.2 319.0 L 555.8 320.8 L 557.5 322.7 L 558.7 323.9 L 559.4 324.5 L 559.8 325.2 L 560.0 326.0 L 560.7 327.5 L 561.7 329.6 L 562.7 331.8 L 563.8 334.1 L 564.9 336.4 L 566.0 338.6 L 567.1 340.9 L 568.1 343.1 L 569.2 345.4 L 570.3 347.6 L 571.3 349.9 L 572.4 352.2 L 573.5 354.4 L 574.6 356.7 L 575.6 358.9 L 576.7 361.2 L 577.8 363.5 L 578.8 365.7 L 579.9 368.0 L 581.0 370.3 L 582.0 372.5 L 583.1 374.8 L 584.1 377.0 L 585.2 379.3 L 586.2 381.6 L 587.3 383.9 L 588.3 386.1 L 589.4 388.4 L 590.5 390.6 L 591.6 392.9 L 592.7 395.1 L 593.8 397.4 L 594.9 399.6 L 596.0 401.9 L 597.0 404.0 L 597.9 405.9 L 598.3 406.8 L 641.7 385.2 L 641.2 384.2 L 640.2 382.3 L 639.1 380.3 L 638.0 378.1 L 636.8 375.9 L 635.7 373.6 L 634.6 371.4 L 633.4 369.2 L 632.3 367.0 L 631.1 364.7 L 629.9 362.5 L 628.7 360.3 L 627.5 358.1 L 626.4 355.9 L 625.2 353.7 L 624.0 351.5 L 622.8 349.3 L 621.6 347.1 L 620.5 344.9 L 619.3 342.7 L 618.1 340.5 L 617.0 338.3 L 615.8 336.1 L 614.6 333.8 L 613.5 331.6 L 612.3 329.4 L 611.1 327.2 L 610.0 325.0 L 608.8 322.8 L 607.7 320.6 L 606.5 318.4 L 605.3 316.1 L 604.2 313.9 L 603.0 311.7 L 601.8 309.4 L 600.6 307.1 L 599.0 304.1 L 596.9 300.5 L 594.4 297.2 L 591.6 294.2 L 589.3 291.9 L 587.5 290.1 L 585.7 288.4 L 583.9 286.6 L 582.1 284.9 L 580.3 283.2 L 578.5 281.5 L 576.7 279.8 L 574.8 278.1 L 573.0 276.4 L 571.1 274.7 L 569.3 273.0 L 567.4 271.3 L 565.6 269.6 L 563.7 267.9 L 561.8 266.3 L 560.0 264.6 L 558.1 263.0 L 555.9 261.1 L 553.6 259.0 L 550.7 256.8 L 547.4 254.5 L 544.2 252.7 L 541.2 251.3 L 538.5 250.1 L 536.1 249.2 L 533.8 248.2 L 531.5 247.3 L 529.2 246.3 L 526.9 245.3 L 524.6 244.3 L 522.3 243.4 L 520.0 242.4 L 517.6 241.4 L 515.3 240.4 L 513.0 239.4 L 510.7 238.5 L 508.4 237.5 L 506.1 236.5 L 503.8 235.5 L 501.5 234.5 L 499.1 233.6 L 496.4 232.6 L 493.2 231.4 L 489.4 230.5 L 485.2 230.1 L 481.4 230.1 L 478.0 230.8 L 475.1 231.5 L 472.7 232.2 L 470.2 233.0 L 467.7 233.7 L 465.3 234.5 L 462.8 235.3 L 460.4 236.1 L 457.9 237.0 L 455.5 237.8 L 453.0 238.6 L 450.5 239.4 L 448.1 240.1 L 445.6 240.9 L 443.2 241.7 L 440.7 242.3 L 438.2 243.0 L 435.8 243.4 L 433.3 243.7 L 430.8 243.9 L 428.3 244.0 L 425.8 244.2 L 423.3 244.3 L 420.8 244.4 L 418.3 244.5 L 415.8 244.5 L 413.3 244.4 L 410.8 244.2 L 408.2 244.0 L 405.7 243.7 L 403.2 243.5 L 400.7 243.3 L 398.2 243.0 L 395.7 242.8 L 393.1 242.6 L 390.5 242.5 L 387.7 242.3 L 385.0 242.4 L 382.1 242.6 L 379.4 243.0 L 376.9 243.5 L 374.4 244.0 L 371.9 244.5 L 369.5 245.2 L 367.2 246.0 L 364.8 246.9 L 362.5 247.9 L 360.2 248.9 L 357.9 250.0 L 355.6 251.0 L 353.2 252.0 L 350.9 253.0 L 348.6 254.0 L 346.3 255.0 L 344.0 256.1 L 341.7 257.1 L 339.3 258.0 L 337.0 259.0 L 334.7 260.0 L 332.3 260.8 L 329.9 261.6 L 327.5 262.3 L 325.1 262.9 L 322.7 263.6 L 320.3 264.2 L 317.9 264.9 L 315.5 265.5 L 313.1 266.2 L 310.6 266.8 L 308.2 267.5 L 305.8 268.1 L 303.4 268.8 L 301.0 269.5 L 298.6 270.1 L 296.2 270.8 L 293.8 271.4 L 291.3 272.1 L 288.9 272.7 L 286.5 273.4 L 284.1 274.0 L 281.7 274.7 L 279.3 275.3 L 276.9 276.0 L 274.4 276.6 L 272.0 277.3 L 269.6 277.9 L 267.2 278.6 L 264.8 279.3 L 262.4 279.9 L 260.0 280.6 L 257.6 281.2 L 255.1 281.9 L 252.7 282.5 L 250.3 283.2 L 247.9 283.8 L 245.5 284.5 L 243.1 285.1 L 240.7 285.8 L 238.2 286.4 L 235.8 287.1 L 233.4 287.8 L 231.0 288.4 L 228.6 289.1 L 226.2 289.7 L 223.8 290.4 L 221.4 291.0 L 218.9 291.7 L 216.5 292.3 L 214.1 293.0 L 211.7 293.5 L 209.2 294.0 L 206.8 294.5 L 204.3 295.0 L 201.8 295.4 L 199.4 295.9 L 196.9 296.4 L 194.5 296.9 L 192.0 297.4 L 189.6 298.0 L 187.1 298.5 L 184.7 299.0 L 182.2 299.6 L 179.8 300.3 L 177.4 300.9 L 175.0 301.6 L 172.6 302.3 L 170.2 302.9 L 169.0 303.2 Z" fill="#fc8b05" />
    <path id="seg_005_outline" d="M 193.3 728.8 L 194.5 728.4 L 196.8 727.7 L 199.2 726.9 L 201.6 726.1 L 204.0 725.3 L 206.3 724.6 L 208.7 723.8 L 211.1 723.1 L 213.5 722.3 L 215.9 721.6 L 218.3 720.8 L 220.6 720.1 L 223.0 719.3 L 225.4 718.6 L 227.8 717.8 L 230.2 717.1 L 232.6 716.3 L 234.9 715.5 L 237.3 714.8 L 239.7 714.0 L 242.1 713.3 L 244.5 712.5 L 246.9 711.7 L 249.2 711.0 L 251.6 710.2 L 254.0 709.5 L 256.4 708.7 L 258.8 707.9 L 261.2 707.1 L 263.6 706.3 L 266.2 705.3 L 268.9 704.1 L 271.4 702.5 L 273.5 700.6 L 275.5 698.8 L 277.4 697.2 L 279.3 695.5 L 281.2 693.9 L 283.0 692.2 L 284.9 690.6 L 286.8 688.9 L 288.7 687.3 L 290.6 685.6 L 292.5 684.0 L 294.4 682.4 L 296.3 680.7 L 298.2 679.1 L 300.1 677.5 L 302.0 675.9 L 303.9 674.3 L 306.0 672.5 L 308.2 670.5 L 310.1 668.2 L 311.6 665.5 L 313.0 663.1 L 314.2 660.9 L 315.3 658.7 L 316.5 656.4 L 317.7 654.2 L 318.8 652.0 L 320.0 649.8 L 321.1 647.6 L 322.3 645.4 L 323.5 643.1 L 324.6 640.9 L 325.8 638.7 L 327.0 636.5 L 328.1 634.3 L 329.2 632.1 L 330.4 629.8 L 331.6 627.6 L 332.8 625.4 L 334.0 623.3 L 335.3 621.1 L 336.8 619.0 L 338.3 617.0 L 339.8 615.0 L 341.3 612.9 L 342.7 610.8 L 343.9 608.6 L 345.1 606.5 L 346.4 604.3 L 347.7 602.1 L 349.0 600.0 L 350.3 597.8 L 351.6 595.7 L 352.7 594.0 L 353.7 592.7 L 354.2 592.0 L 333.8 582.0 L 333.6 582.7 L 333.2 584.3 L 332.5 586.2 L 331.6 588.6 L 330.7 590.9 L 329.7 593.3 L 328.8 595.6 L 327.8 597.9 L 326.8 600.2 L 325.8 602.5 L 325.0 604.9 L 324.3 607.3 L 323.6 609.7 L 322.9 612.2 L 322.1 614.6 L 321.2 616.9 L 320.2 619.2 L 319.2 621.5 L 318.2 623.8 L 317.1 626.0 L 316.0 628.3 L 314.9 630.6 L 313.9 632.8 L 312.8 635.1 L 311.8 637.4 L 310.7 639.6 L 309.7 641.9 L 308.6 644.2 L 307.5 646.4 L 306.5 648.7 L 305.4 651.0 L 304.4 653.2 L 303.3 655.5 L 302.3 657.7 L 301.4 659.7 L 300.6 661.5 L 299.5 663.1 L 298.0 664.5 L 296.4 666.0 L 294.6 667.8 L 292.8 669.5 L 291.0 671.3 L 289.2 673.0 L 287.4 674.7 L 285.6 676.5 L 283.8 678.2 L 282.0 679.9 L 280.2 681.6 L 278.4 683.3 L 276.5 685.1 L 274.7 686.8 L 272.9 688.5 L 271.1 690.2 L 269.2 691.9 L 267.5 693.5 L 266.0 694.9 L 264.3 696.0 L 262.5 696.7 L 260.4 697.5 L 258.1 698.2 L 255.8 699.0 L 253.4 699.8 L 251.1 700.6 L 248.7 701.4 L 246.3 702.2 L 244.0 703.0 L 241.6 703.8 L 239.2 704.6 L 236.9 705.4 L 234.5 706.2 L 232.1 707.0 L 229.8 707.8 L 227.4 708.7 L 225.0 709.5 L 222.7 710.3 L 220.3 711.1 L 218.0 711.9 L 215.6 712.7 L 213.2 713.6 L 210.9 714.4 L 208.5 715.2 L 206.1 716.0 L 203.8 716.8 L 201.4 717.6 L 199.0 718.4 L 196.7 719.2 L 194.3 720.0 L 191.9 720.8 L 190.7 721.2 Z" fill="#48ad2e" />
    <path id="seg_002_outline" d="M 303.7 169.0 L 304.9 169.6 L 307.1 170.7 L 309.4 171.8 L 311.6 172.9 L 313.9 173.9 L 316.2 175.0 L 318.5 176.0 L 320.7 177.1 L 323.0 178.2 L 325.2 179.3 L 327.4 180.5 L 329.7 181.6 L 331.9 182.7 L 334.2 183.8 L 336.4 184.9 L 338.7 186.0 L 340.9 187.1 L 343.1 188.2 L 345.3 189.4 L 347.5 190.6 L 349.7 191.8 L 351.9 193.1 L 354.0 194.3 L 356.2 195.7 L 358.3 197.0 L 360.3 198.5 L 362.4 200.0 L 364.4 201.5 L 366.4 203.0 L 368.4 204.6 L 370.4 206.1 L 372.4 207.6 L 374.4 209.2 L 376.3 210.8 L 378.2 212.5 L 380.1 214.3 L 382.0 216.1 L 383.8 217.9 L 385.8 219.5 L 387.8 220.9 L 389.9 222.4 L 391.9 223.9 L 393.9 225.4 L 396.0 226.9 L 398.0 228.3 L 400.0 229.8 L 402.1 231.3 L 404.1 232.8 L 405.1 233.5 L 416.1 214.0 L 414.9 213.6 L 412.6 212.6 L 410.3 211.6 L 408.0 210.7 L 405.6 209.7 L 403.3 208.7 L 401.0 207.7 L 398.7 206.8 L 396.3 205.8 L 394.0 204.8 L 391.6 204.0 L 389.1 203.3 L 386.6 202.6 L 384.2 202.0 L 381.7 201.2 L 379.3 200.4 L 376.9 199.6 L 374.6 198.6 L 372.2 197.7 L 369.9 196.8 L 367.5 195.9 L 365.2 195.0 L 362.8 194.0 L 360.5 193.0 L 358.3 191.9 L 356.0 190.8 L 353.8 189.6 L 351.7 188.4 L 349.5 187.1 L 347.3 185.9 L 345.2 184.6 L 343.0 183.3 L 340.9 182.0 L 338.8 180.6 L 336.7 179.3 L 334.6 177.9 L 332.5 176.6 L 330.3 175.3 L 328.2 173.9 L 326.1 172.6 L 324.0 171.3 L 321.9 169.9 L 319.8 168.5 L 317.7 167.1 L 315.6 165.7 L 313.5 164.3 L 311.4 163.0 L 309.3 161.6 L 308.3 161.0 Z" fill="#fd910c" />
    <path id="seg_004_outline" d="M 169.6 572.4 L 170.9 572.5 L 173.4 572.8 L 175.8 573.1 L 178.3 573.3 L 180.8 573.6 L 183.3 573.8 L 185.8 574.0 L 188.3 574.2 L 190.8 574.4 L 193.3 574.6 L 195.8 574.7 L 198.3 574.9 L 200.8 575.1 L 203.3 575.3 L 205.7 575.4 L 208.2 575.6 L 210.7 575.7 L 213.2 575.8 L 215.7 576.0 L 218.2 576.1 L 220.7 576.3 L 223.2 576.4 L 225.7 576.5 L 228.2 576.7 L 230.7 576.8 L 233.2 577.0 L 235.7 577.1 L 238.2 577.3 L 240.7 577.6 L 243.2 577.9 L 245.7 578.2 L 248.1 578.5 L 250.6 578.8 L 253.1 579.2 L 255.6 579.6 L 258.1 580.0 L 260.5 580.4 L 263.0 580.8 L 265.5 581.3 L 267.9 581.7 L 270.4 582.2 L 272.9 582.6 L 275.4 583.0 L 277.8 583.4 L 280.3 583.9 L 282.8 584.3 L 285.2 584.7 L 287.7 585.2 L 290.2 585.6 L 292.7 586.0 L 295.1 586.4 L 297.6 586.8 L 300.1 587.2 L 302.6 587.6 L 305.0 588.0 L 307.5 588.4 L 310.0 588.9 L 312.4 589.4 L 314.9 590.0 L 317.4 590.6 L 319.8 591.2 L 322.3 591.8 L 324.7 592.3 L 327.2 592.7 L 329.7 593.1 L 332.2 593.4 L 334.7 593.8 L 337.1 594.2 L 339.6 594.7 L 342.1 595.1 L 343.7 595.5 L 344.5 595.8 L 344.9 596.0 L 347.1 570.0 L 346.7 570.1 L 345.8 570.3 L 344.2 570.4 L 341.7 570.4 L 339.2 570.4 L 336.6 570.4 L 334.1 570.4 L 331.6 570.3 L 329.1 570.3 L 326.6 570.2 L 324.1 570.3 L 321.6 570.5 L 319.1 570.6 L 316.5 570.8 L 314.0 571.0 L 311.5 571.1 L 309.0 571.2 L 306.5 571.2 L 304.0 571.1 L 301.5 571.1 L 299.0 571.1 L 296.5 571.0 L 293.9 571.0 L 291.4 571.0 L 288.9 571.0 L 286.4 571.0 L 283.9 571.0 L 281.4 571.0 L 278.9 571.0 L 276.4 571.1 L 273.9 571.1 L 271.4 571.0 L 268.8 571.0 L 266.3 571.1 L 263.8 571.1 L 261.3 571.1 L 258.8 571.1 L 256.3 571.0 L 253.8 571.0 L 251.3 571.0 L 248.8 570.9 L 246.3 570.8 L 243.8 570.7 L 241.3 570.5 L 238.8 570.3 L 236.3 570.1 L 233.8 569.9 L 231.3 569.6 L 228.9 569.3 L 226.4 569.0 L 223.9 568.7 L 221.4 568.4 L 218.9 568.1 L 216.4 567.9 L 213.9 567.6 L 211.5 567.3 L 209.0 567.0 L 206.5 566.7 L 204.0 566.5 L 201.5 566.3 L 199.0 566.0 L 196.5 565.7 L 194.1 565.5 L 191.6 565.2 L 189.1 565.0 L 186.6 564.7 L 184.1 564.5 L 181.6 564.3 L 179.1 564.2 L 176.6 564.0 L 174.1 563.8 L 171.6 563.7 L 170.4 563.6 Z" fill="#4aad2e" />
    <path id="seg_006_outline" d="M 1019.7 141.3 L 1018.8 142.2 L 1017.1 144.0 L 1015.3 145.8 L 1013.6 147.6 L 1011.8 149.4 L 1010.0 151.1 L 1008.2 152.8 L 1006.3 154.6 L 1004.5 156.3 L 1002.7 157.9 L 1000.8 159.6 L 998.9 161.2 L 997.0 162.8 L 995.1 164.5 L 993.2 166.1 L 991.3 167.7 L 989.4 169.4 L 987.5 171.0 L 985.6 172.6 L 983.7 174.2 L 981.8 175.9 L 979.9 177.5 L 978.0 179.1 L 976.1 180.8 L 974.2 182.4 L 972.3 184.0 L 970.4 185.6 L 968.5 187.3 L 966.6 188.9 L 964.7 190.5 L 962.8 192.2 L 961.0 193.8 L 959.1 195.4 L 957.2 197.0 L 955.1 198.5 L 952.9 199.8 L 950.7 201.1 L 948.5 202.3 L 946.3 203.5 L 944.0 204.8 L 941.9 206.1 L 939.8 207.6 L 937.8 209.0 L 935.7 210.4 L 933.5 211.8 L 931.4 213.1 L 929.2 214.4 L 927.0 215.7 L 925.5 216.3 L 924.7 216.3 L 924.3 216.4 L 935.7 229.6 L 935.8 229.2 L 935.9 228.5 L 936.8 227.1 L 938.4 225.1 L 940.0 223.1 L 941.7 221.2 L 943.3 219.3 L 945.0 217.5 L 946.7 215.6 L 948.5 213.8 L 950.1 211.9 L 951.7 209.9 L 953.3 207.9 L 954.8 205.8 L 956.4 203.8 L 958.0 201.9 L 959.8 200.1 L 961.7 198.4 L 963.6 196.8 L 965.5 195.2 L 967.4 193.6 L 969.2 191.9 L 971.1 190.3 L 973.0 188.7 L 974.9 187.0 L 976.8 185.4 L 978.7 183.8 L 980.6 182.2 L 982.5 180.5 L 984.4 178.9 L 986.3 177.3 L 988.2 175.6 L 990.1 174.0 L 992.0 172.4 L 993.9 170.8 L 995.8 169.1 L 997.7 167.5 L 999.6 165.9 L 1001.5 164.2 L 1003.4 162.6 L 1005.3 161.0 L 1007.2 159.4 L 1009.2 157.9 L 1011.2 156.3 L 1013.2 154.8 L 1015.2 153.3 L 1017.2 151.8 L 1019.2 150.3 L 1021.2 148.8 L 1023.3 147.4 L 1024.3 146.7 Z" fill="#8a58b7" />
    <path id="seg_010_outline" d="M 541.5 519.2 L 540.3 519.7 L 538.0 520.5 L 535.6 521.4 L 533.3 522.2 L 530.9 523.1 L 528.5 524.0 L 526.2 524.8 L 523.8 525.7 L 521.5 526.6 L 519.1 527.5 L 516.8 528.4 L 514.4 529.4 L 512.1 530.5 L 509.8 531.5 L 507.5 532.6 L 505.2 533.8 L 502.9 534.9 L 500.6 536.0 L 498.4 537.2 L 496.1 538.3 L 493.8 539.4 L 491.4 540.4 L 489.1 541.4 L 486.8 542.4 L 484.4 543.3 L 482.1 544.3 L 479.8 545.2 L 477.4 546.2 L 475.1 547.1 L 472.7 547.9 L 470.3 548.7 L 467.9 549.5 L 465.5 550.2 L 463.1 550.9 L 460.7 551.6 L 458.3 552.3 L 455.9 553.0 L 453.5 553.6 L 451.1 554.2 L 448.6 554.7 L 446.2 555.2 L 443.7 555.7 L 441.3 556.2 L 438.8 556.6 L 436.3 557.0 L 433.9 557.5 L 431.4 557.8 L 428.9 558.1 L 426.4 558.4 L 423.8 558.6 L 421.3 558.8 L 418.8 559.0 L 416.2 559.2 L 413.7 559.4 L 411.2 559.5 L 408.6 559.7 L 406.1 559.8 L 403.5 559.9 L 401.0 560.0 L 398.4 560.2 L 395.9 560.4 L 393.4 560.6 L 390.9 560.8 L 388.3 560.9 L 385.8 561.1 L 383.2 561.2 L 380.7 561.4 L 378.2 561.6 L 375.6 561.8 L 373.1 562.1 L 370.6 562.4 L 368.1 562.7 L 365.7 563.1 L 363.2 563.5 L 360.7 564.0 L 358.3 564.4 L 355.8 564.9 L 353.4 565.4 L 350.9 565.9 L 348.5 566.5 L 346.2 566.9 L 344.1 567.2 L 343.1 567.4 L 350.9 598.6 L 351.9 598.2 L 353.9 597.6 L 356.1 596.9 L 358.5 596.2 L 360.9 595.4 L 363.3 594.7 L 365.7 594.0 L 368.1 593.2 L 370.5 592.5 L 372.9 591.6 L 375.2 590.8 L 377.6 589.9 L 379.9 589.0 L 382.3 588.1 L 384.6 587.1 L 386.9 586.0 L 389.2 584.9 L 391.5 583.9 L 393.8 582.8 L 396.2 581.7 L 398.5 580.7 L 400.8 579.7 L 403.1 578.7 L 405.4 577.6 L 407.7 576.5 L 410.0 575.4 L 412.3 574.3 L 414.6 573.2 L 416.9 572.1 L 419.2 571.1 L 421.6 570.0 L 423.9 569.0 L 426.2 568.0 L 428.5 567.0 L 430.9 566.0 L 433.2 565.1 L 435.6 564.2 L 437.9 563.4 L 440.3 562.7 L 442.7 561.9 L 445.1 561.1 L 447.5 560.4 L 449.9 559.7 L 452.3 559.0 L 454.7 558.3 L 457.1 557.7 L 459.6 557.1 L 462.0 556.6 L 464.5 556.1 L 466.9 555.6 L 469.4 555.1 L 471.8 554.6 L 474.3 554.2 L 476.8 553.8 L 479.3 553.5 L 481.8 553.2 L 484.3 552.9 L 486.8 552.7 L 489.3 552.4 L 491.8 552.1 L 494.3 551.9 L 496.9 551.7 L 499.4 551.6 L 502.0 551.5 L 504.5 551.4 L 507.1 551.3 L 509.6 551.2 L 512.2 551.1 L 514.7 551.0 L 517.3 550.8 L 519.8 550.6 L 522.3 550.4 L 524.8 550.1 L 527.3 549.8 L 529.8 549.5 L 532.3 549.1 L 534.8 548.8 L 537.3 548.4 L 539.8 548.0 L 542.3 547.7 L 544.7 547.3 L 547.2 546.9 L 548.5 546.8 Z" fill="#47aa2c" />
    <path id="seg_011_outline" d="M 1117.4 476.3 L 1118.1 475.3 L 1119.6 473.2 L 1121.1 471.2 L 1122.6 469.2 L 1124.1 467.2 L 1125.6 465.2 L 1127.1 463.2 L 1128.6 461.2 L 1129.9 459.1 L 1131.1 456.8 L 1132.4 454.7 L 1133.9 452.7 L 1135.4 450.7 L 1136.9 448.7 L 1138.4 446.7 L 1139.9 444.7 L 1141.1 443.0 L 1142.2 441.5 L 1142.8 440.8 L 1135.2 435.2 L 1134.7 435.9 L 1133.6 437.4 L 1132.4 439.1 L 1130.9 441.1 L 1129.4 443.1 L 1127.9 445.1 L 1126.4 447.1 L 1124.9 449.1 L 1123.3 451.0 L 1121.4 452.8 L 1119.8 454.7 L 1118.3 456.7 L 1116.8 458.7 L 1115.3 460.7 L 1113.8 462.7 L 1112.3 464.7 L 1110.9 466.7 L 1109.4 468.7 L 1108.6 469.7 Z" fill="#f3336b" />
    <path id="seg_012_outline" d="M 985.8 829.9 L 986.3 831.1 L 987.2 833.4 L 988.1 835.8 L 989.0 838.1 L 989.9 840.5 L 990.7 842.8 L 991.6 845.2 L 992.4 847.5 L 993.2 849.9 L 994.0 852.3 L 994.9 854.6 L 995.9 856.9 L 996.9 859.3 L 997.9 861.6 L 998.9 863.9 L 999.8 866.2 L 1000.7 868.6 L 1001.5 870.9 L 1002.3 873.3 L 1003.0 875.7 L 1003.7 878.1 L 1004.4 880.5 L 1005.2 882.9 L 1005.9 885.3 L 1006.7 887.7 L 1007.4 890.0 L 1008.2 892.4 L 1008.9 894.8 L 1009.7 897.2 L 1010.4 899.6 L 1011.1 902.0 L 1011.9 904.4 L 1012.6 906.8 L 1013.3 909.2 L 1014.0 911.6 L 1014.7 914.0 L 1015.4 916.4 L 1016.2 918.8 L 1016.7 920.6 L 1017.2 921.9 L 1017.4 922.6 L 1028.6 919.4 L 1028.4 918.7 L 1028.1 917.3 L 1027.6 915.5 L 1027.0 913.0 L 1026.3 910.6 L 1025.6 908.2 L 1025.0 905.8 L 1024.3 903.4 L 1023.6 901.0 L 1023.0 898.6 L 1022.3 896.2 L 1021.7 893.8 L 1021.0 891.3 L 1020.4 888.9 L 1019.8 886.5 L 1019.2 884.1 L 1018.5 881.7 L 1017.9 879.2 L 1017.3 876.8 L 1016.6 874.4 L 1015.9 872.0 L 1015.3 869.6 L 1014.7 867.2 L 1014.1 864.7 L 1013.6 862.3 L 1013.1 859.8 L 1012.7 857.3 L 1012.3 854.8 L 1012.0 852.3 L 1011.6 849.8 L 1011.1 847.4 L 1010.6 844.9 L 1010.0 842.5 L 1009.4 840.1 L 1008.9 837.6 L 1008.3 835.2 L 1007.8 832.7 L 1007.3 830.3 L 1006.8 827.8 L 1006.4 825.3 L 1006.2 824.1 Z" fill="#23c2d6" />
  </g>
</svg>