<svg xmlns="http://www.w3.org/2000/svg" viewBox="0 0 1448 1086" width="1448" height="1086">
  <g id="editable-branches" fill="none" stroke-linecap="round" stroke-linejoin="round">
    <path id="seg_003" d="M 1126.0 299.0 C 1121.2 298.8 1111.5 298.4 1097.0 297.8 C 1082.5 297.1 1055.8 298.5 1039.0 295.2 C 1022.2 292.0 1008.0 286.5 996.2 278.5 C 984.5 270.5 978.0 255.4 968.8 247.5 C 959.5 239.6 950.2 234.1 940.8 231.0 C 931.3 227.9 923.8 227.3 912.2 229.0 C 900.7 230.7 887.1 234.8 871.5 241.2 C 855.9 247.7 834.2 256.9 818.5 267.8 C 802.8 278.6 789.2 291.5 777.5 306.5 C 765.8 321.5 755.8 344.8 748.5 357.5 C 741.2 370.2 736.4 378.8 734.0 383.0" stroke="#8956b7" stroke-width="15.6" />
    <path id="seg_009" d="M 653.0 610.0 C 651.5 614.5 648.4 623.4 643.8 636.8 C 639.1 650.1 636.5 672.8 625.2 690.2 C 614.0 707.7 597.5 724.8 576.0 741.5 C 554.5 758.2 516.8 775.2 496.0 790.5 C 475.2 805.8 460.2 820.2 451.0 833.5 C 441.8 846.8 439.4 859.1 441.0 870.5 C 442.6 881.9 449.2 892.3 460.8 901.8 C 472.3 911.2 487.7 921.2 510.2 927.2 C 532.8 933.3 561.5 937.0 596.2 938.2 C 631.0 939.5 688.1 935.6 718.8 934.8 C 749.4 933.9 769.8 933.3 780.0 933.0" stroke="#046bc8" stroke-width="17.2" />
    <path id="seg_008" d="M 1140.0 803.0 C 1133.8 803.9 1121.5 805.8 1103.0 808.5 C 1084.5 811.2 1050.8 818.0 1029.0 819.5 C 1007.2 821.0 988.4 820.2 972.5 817.2 C 956.6 814.3 945.7 807.9 933.5 801.8 C 921.3 795.6 910.0 788.4 899.5 780.2 C 889.0 772.1 879.4 765.0 870.5 752.8 C 861.6 740.5 853.4 725.0 846.0 706.5 C 838.6 688.0 831.0 657.8 826.0 641.5 C 821.0 625.2 817.7 614.4 816.0 609.0" stroke="#1dbed1" stroke-width="16.8" />
    <path id="seg_001" d="M 1251.0 608.0 C 1247.6 607.5 1240.8 606.5 1230.5 605.0 C 1220.2 603.5 1202.8 604.8 1189.5 599.0 C 1176.2 593.2 1163.4 583.8 1151.0 570.5 C 1138.6 557.2 1134.3 529.8 1115.0 519.5 C 1095.7 509.2 1069.1 505.5 1035.2 508.5 C 1001.4 511.5 942.6 530.2 911.8 537.5 C 880.9 544.8 860.3 549.6 850.0 552.0" stroke="#ed3468" stroke-width="16.5" />
    <path id="seg_007" d="M 170.0 307.0 C 182.0 303.8 206.0 297.2 242.0 287.5 C 278.0 277.8 345.6 256.0 386.0 248.5 C 426.4 241.0 459.2 239.1 484.5 242.8 C 509.8 246.4 521.9 258.7 537.5 270.2 C 553.1 281.8 566.6 295.7 578.0 312.0 C 589.4 328.3 599.0 354.0 606.0 368.0 C 613.0 382.0 617.7 391.3 620.0 396.0" stroke="#fc8b05" stroke-width="15.0" />
    <path id="seg_005" d="M 192.0 725.0 C 196.2 723.6 204.5 720.9 217.0 716.8 C 229.5 712.6 252.3 708.8 267.0 700.2 C 281.7 691.8 294.3 680.2 305.0 665.8 C 315.7 651.2 324.5 626.4 331.0 613.2 C 337.5 600.1 341.8 591.4 344.0 587.0" stroke="#48ad2e" stroke-width="4.5" />
    <path id="seg_002" d="M 306.0 165.0 C 341.3 192.2 378.1 220.5 412.3 247.0" stroke="#fd8e07" stroke-width="10.9" />
    <path id="seg_004" d="M 170.0 568.0 C 227.6 572.9 294.0 578.6 346.0 583.0" stroke="#4aad2e" stroke-width="4.5" />
    <path id="seg_006" d="M 1022.0 144.0 C 992.0 171.9 955.2 206.3 929.5 230.2" stroke="#8b59b8" stroke-width="10.8" />
    <path id="seg_010" d="M 545.0 533.0 C 479.3 549.6 411.5 566.7 347.0 583.0" stroke="#47aa2c" stroke-width="15.1" />
    <path id="seg_011" d="M 1106.7 518.4 C 1117.1 492.6 1130.8 458.5 1139.0 438.0" stroke="#f03469" stroke-width="4.5" />
    <path id="seg_012" d="M 996.4 818.2 C 1004.9 851.3 1016.0 894.0 1023.0 921.0" stroke="#23c2d5" stroke-width="4.9" />
  </g>
</svg>